<svg width="220" height="80" viewBox="0 0 220 80" fill="none" xmlns="http://www.w3.org/2000/svg">
<path d="M57.5562 64.0002C56.9455 64.0002 56.4384 63.7999 56.0361 63.403C55.6326 63.0049 55.4326 62.5031 55.4326 61.8987V43.112C55.4603 40.9426 55.9735 38.9913 56.972 37.2618C57.9718 35.531 59.3317 34.165 61.053 33.1625C62.7731 32.1601 64.7172 31.6583 66.8818 31.6583C69.0463 31.6583 71.0302 32.1601 72.7515 33.1625C74.4716 34.1662 75.8387 35.5322 76.853 37.2618C77.866 38.9925 78.3731 40.9426 78.3731 43.112C78.3731 45.2814 77.9081 47.2255 76.9782 48.9419C76.0471 50.6584 74.7787 52.0184 73.1683 53.0209C71.5578 54.0233 69.7402 54.5252 67.7141 54.5252C66.0759 54.5252 64.5715 54.189 63.1971 53.5156C61.8227 52.8433 60.6507 51.929 59.6786 50.7752V61.8987C59.6786 62.5031 59.4835 63.0037 59.0956 63.403C58.7066 63.8011 58.1934 64.0002 57.555 64.0002H57.5562ZM66.8818 50.8157C68.2971 50.8157 69.5607 50.4796 70.6701 49.8061C71.7794 49.1339 72.6612 48.2136 73.314 47.0455C73.9657 45.8786 74.2921 44.5674 74.2921 43.1108C74.2921 41.6542 73.9657 40.3025 73.314 39.1344C72.6612 37.9674 71.7794 37.0472 70.6701 36.3737C69.5595 35.7015 68.2971 35.3641 66.8818 35.3641C65.4664 35.3641 64.2378 35.7003 63.114 36.3737C61.9901 37.0472 61.1084 37.9674 60.47 39.1344C59.8304 40.3025 59.5124 41.6268 59.5124 43.1108C59.5124 44.5948 59.8304 45.8786 60.47 47.0455C61.1084 48.2136 61.9901 49.1327 63.114 49.8061C64.2378 50.4796 65.4941 50.8157 66.8818 50.8157Z" fill="#363B3F"/>
<path d="M95.4022 54.5238C93.0979 54.5238 91.0514 54.0362 89.2614 53.0612C87.4703 52.0862 86.0694 50.7404 85.0564 49.024C84.0421 47.3075 83.5362 45.3372 83.5362 43.1118C83.5362 40.8863 84.0156 38.8755 84.9733 37.1578C85.9309 35.4414 87.2559 34.0956 88.9494 33.1206C90.6418 32.1456 92.5848 31.6581 94.7782 31.6581C96.9717 31.6581 98.8026 32.1313 100.356 33.0789C101.91 34.0265 103.098 35.3317 103.916 36.9933C104.734 38.655 105.144 40.5717 105.144 42.7411C105.144 43.2631 104.964 43.6958 104.604 44.0391C104.242 44.3836 103.785 44.5541 103.229 44.5541H86.4512V41.2582H103.105L101.398 42.4121C101.371 41.0389 101.092 39.81 100.566 38.7241C100.038 37.6394 99.2892 36.7812 98.3184 36.1494C97.3463 35.5177 96.167 35.2018 94.7794 35.2018C93.1967 35.2018 91.844 35.5451 90.7201 36.2317C89.5963 36.9183 88.7423 37.8587 88.1593 39.0543C87.5763 40.2486 87.2848 41.6027 87.2848 43.113C87.2848 44.6232 87.6317 45.9701 88.3255 47.1502C89.0193 48.3314 89.9769 49.2659 91.1983 49.9513C92.4197 50.6379 93.8218 50.9812 95.4034 50.9812C96.2634 50.9812 97.1451 50.8239 98.0473 50.5068C98.9495 50.1909 99.6771 49.8274 100.234 49.4149C100.65 49.1134 101.101 48.9548 101.586 48.9417C102.072 48.9286 102.496 49.0717 102.856 49.3744C103.327 49.7868 103.577 50.2398 103.605 50.7345C103.633 51.2291 103.411 51.6547 102.939 52.0111C101.996 52.7525 100.823 53.3568 99.4205 53.8241C98.0184 54.2913 96.679 54.5249 95.4034 54.5249L95.4022 54.5238Z" fill="#363B3F"/>
<path d="M120.133 54.5643C118.217 54.5643 116.503 54.159 114.99 53.3485C113.478 52.5391 112.284 51.3507 111.409 49.7845C110.535 48.2194 110.098 46.2967 110.098 44.0165V33.8811C110.098 33.2768 110.298 32.7761 110.701 32.3768C111.103 31.9787 111.609 31.7796 112.221 31.7796C112.833 31.7796 113.338 31.9787 113.741 32.3768C114.144 32.7749 114.345 33.2768 114.345 33.8811V44.0165C114.345 45.5553 114.636 46.8248 115.219 47.8272C115.802 48.8309 116.594 49.5723 117.592 50.0526C118.591 50.533 119.716 50.7738 120.965 50.7738C122.214 50.7738 123.219 50.5414 124.15 50.0741C125.08 49.6068 125.822 48.9763 126.377 48.1789C126.932 47.3826 127.209 46.4898 127.209 45.5005H129.833C129.833 47.2038 129.409 48.7415 128.563 50.1146C127.716 51.489 126.565 52.5737 125.107 53.3699C123.65 54.1674 121.991 54.5643 120.133 54.5643ZM129.334 54.3581C128.723 54.3581 128.216 54.159 127.814 53.7609C127.412 53.3628 127.21 52.8609 127.21 52.2566V33.8823C127.21 33.2505 127.412 32.7428 127.814 32.3577C128.216 31.9739 128.722 31.7808 129.334 31.7808C129.946 31.7808 130.486 31.9739 130.875 32.3577C131.264 32.7428 131.458 33.2505 131.458 33.8823V52.2578C131.458 52.8621 131.264 53.364 130.875 53.7621C130.486 54.1602 129.972 54.3593 129.334 54.3593V54.3581Z" fill="#363B3F"/>
<path d="M140.949 54.3998C140.339 54.3998 139.853 54.2007 139.492 53.8026C139.131 53.4045 138.951 52.9039 138.951 52.2983V33.924C138.951 33.2923 139.132 32.7845 139.492 32.3995C139.852 32.0145 140.339 31.8225 140.949 31.8225C141.56 31.8225 142.108 32.0145 142.511 32.3995C142.913 32.7845 143.114 33.2923 143.114 33.924V40.8041H148.444V44.6768H143.114V52.2983C143.114 52.9027 142.913 53.4045 142.511 53.8026C142.108 54.2007 141.588 54.3998 140.949 54.3998ZM157.437 53.8646C157.076 54.1936 156.569 54.3521 155.917 54.3378C155.264 54.3247 154.758 54.1387 154.397 53.7823L144.28 43.0295L153.814 32.4817C154.175 32.0967 154.681 31.8774 155.334 31.8225C155.986 31.7677 156.493 31.9048 156.854 32.235C157.271 32.62 157.506 33.0527 157.561 33.533C157.617 34.0134 157.464 34.4461 157.104 34.8311L149.568 42.8233L157.561 51.3102C157.921 51.6678 158.102 52.0862 158.102 52.5665C158.102 53.0469 157.879 53.4796 157.436 53.8646H157.437Z" fill="#363B3F"/>
<path d="M170.719 54.5238C168.691 54.5238 166.874 54.0231 165.264 53.0195C163.654 52.017 162.384 50.657 161.454 48.9405C160.524 47.2241 160.06 45.2812 160.06 43.1106C160.06 40.94 160.565 38.9899 161.58 37.2603C162.593 35.5296 163.967 34.1636 165.702 33.1611C167.436 32.1587 169.386 31.6569 171.551 31.6569C173.715 31.6569 175.658 32.1587 177.38 33.1611C179.1 34.1648 180.467 35.5308 181.481 37.2603C182.494 38.9911 183.001 40.9412 183.001 43.1106H181.378C181.378 45.28 180.913 47.2241 179.983 48.9405C179.053 50.657 177.783 52.017 176.173 53.0195C174.562 54.0219 172.745 54.5238 170.719 54.5238ZM171.551 50.8155C172.966 50.8155 174.23 50.4794 175.339 49.8059C176.45 49.1336 177.323 48.2134 177.963 47.0453C178.601 45.8783 178.92 44.5672 178.92 43.1106C178.92 41.654 178.601 40.3023 177.963 39.1341C177.324 37.9672 176.45 37.047 175.339 36.3735C174.229 35.7012 172.966 35.3639 171.551 35.3639C170.136 35.3639 168.907 35.7001 167.783 36.3735C166.659 37.047 165.77 37.9672 165.119 39.1341C164.467 40.3023 164.141 41.6266 164.141 43.1106C164.141 44.5946 164.467 45.8783 165.119 47.0453C165.77 48.2134 166.659 49.1324 167.783 49.8059C168.907 50.4794 170.163 50.8155 171.551 50.8155ZM180.876 54.3998C180.266 54.3998 179.759 54.2007 179.356 53.8026C178.954 53.4045 178.753 52.9039 178.753 52.2983V45.9952L179.544 41.6278L183 43.1106V52.2983C183 52.9027 182.799 53.4045 182.397 53.8026C181.994 54.2007 181.487 54.3998 180.876 54.3998Z" fill="#363B3F"/>
<path d="M39.0964 54.4355C38.6688 54.4355 38.3086 54.2913 38.0183 54.0028C37.7268 53.7144 37.5811 53.3592 37.5811 52.936V33.4102C37.5811 32.968 37.7268 32.608 38.0183 32.3291C38.3098 32.0514 38.6688 31.9107 39.0964 31.9107H51.1321C51.579 31.9107 51.938 32.0406 52.2102 32.3005C52.4812 32.5603 52.6185 32.9013 52.6185 33.3244C52.6185 33.7476 52.4824 34.0551 52.2102 34.3054C51.938 34.5557 51.5778 34.6809 51.1321 34.6809H40.6117V52.9372C40.6117 53.3603 40.4659 53.7156 40.1744 54.004C39.8829 54.2925 39.5228 54.4367 39.0964 54.4367V54.4355Z" fill="#363B3F"/>
<path d="M39.0967 54.7525C38.5824 54.7525 38.1439 54.5761 37.791 54.2268C37.438 53.8776 37.2598 53.4437 37.2598 52.9347V33.4101C37.2598 32.8809 37.4392 32.4399 37.7946 32.1001C38.1463 31.7628 38.5848 31.5924 39.0967 31.5924H51.1337C51.6649 31.5924 52.1021 31.7533 52.4346 32.0703C52.7706 32.3922 52.9417 32.8129 52.9417 33.3243C52.9417 33.8357 52.7694 34.2254 52.431 34.5377C52.0985 34.8429 51.6625 34.9978 51.1337 34.9978H40.9336V52.9359C40.9336 53.4437 40.7553 53.8787 40.4024 54.228C40.0495 54.5761 39.611 54.7537 39.0967 54.7537V54.7525ZM39.0967 32.2289C38.7534 32.2289 38.4727 32.3362 38.2415 32.5579C38.0138 32.776 37.9018 33.0549 37.9018 33.4113V52.9359C37.9018 53.2744 38.0138 53.5498 38.2451 53.7786C38.4764 54.0063 38.7546 54.1171 39.0967 54.1171C39.4388 54.1171 39.717 54.0063 39.9471 53.7786C40.1784 53.5498 40.2904 53.2744 40.2904 52.9359V34.3613H51.1337C51.4998 34.3613 51.7817 34.266 51.9937 34.0717C52.1997 33.8821 52.2997 33.6378 52.2997 33.3243C52.2997 32.9882 52.1985 32.7283 51.9889 32.5281C51.7769 32.3266 51.4974 32.2277 51.1337 32.2277H39.0967V32.2289Z" fill="#363B3F"/>
<path d="M39.0968 54.6931C38.5993 54.6931 38.1741 54.5227 37.8344 54.1853C37.4935 53.848 37.3213 53.4284 37.3213 52.9361V33.4104C37.3213 32.8978 37.4947 32.4723 37.838 32.1433C38.1789 31.8179 38.6017 31.6534 39.0968 31.6534H51.1326C51.6469 31.6534 52.0709 31.8083 52.3913 32.1147C52.7153 32.4246 52.8791 32.8311 52.8791 33.3245C52.8791 33.818 52.7141 34.1947 52.3877 34.4939C52.0685 34.7883 51.6457 34.9373 51.1326 34.9373H40.8723V52.935C40.8723 53.4272 40.7 53.8468 40.3591 54.1841C40.0183 54.5215 39.5943 54.6919 39.0968 54.6919V54.6931ZM39.0968 32.1695C38.7366 32.1695 38.4427 32.2828 38.1994 32.5152C37.9585 32.7452 37.8417 33.0385 37.8417 33.4116V52.9361C37.8417 53.2914 37.9597 53.581 38.203 53.8218C38.4463 54.0626 38.7378 54.1794 39.098 54.1794C39.4581 54.1794 39.7496 54.0626 39.9918 53.8218C40.2351 53.581 40.3531 53.2925 40.3531 52.9361V34.4224H51.1326C51.5156 34.4224 51.8107 34.3222 52.0336 34.116C52.2528 33.9146 52.3588 33.6559 52.3588 33.3245C52.3588 32.9717 52.2516 32.6976 52.0299 32.4854C51.8059 32.272 51.5132 32.1683 51.1326 32.1683H39.0968V32.1695Z" fill="#363B3F"/>
<path d="M39.0971 55.0101C38.5117 55.0101 38.0106 54.8074 37.6071 54.4093C37.2036 54.01 37 53.5142 37 52.9348V33.4103C37 32.8083 37.2072 32.3053 37.6143 31.9143C38.0178 31.5293 38.5165 31.335 39.0971 31.335H51.1329C51.7327 31.335 52.2314 31.5198 52.6145 31.8845C53.0035 32.2576 53.2011 32.7416 53.2011 33.3232C53.2011 33.9049 53.0011 34.3638 52.606 34.7262C52.2254 35.0766 51.7291 35.2543 51.1329 35.2543H41.1942V52.9337C41.1942 53.513 40.9894 54.0088 40.5871 54.4081C40.1836 54.8063 39.6837 55.0089 39.0983 55.0089L39.0971 55.0101ZM39.0971 32.4865C38.8201 32.4865 38.6057 32.5675 38.4226 32.7428C38.2455 32.912 38.1636 33.1242 38.1636 33.4103V52.9348C38.1636 53.2054 38.2479 53.4152 38.4298 53.5952C38.7936 53.9552 39.3994 53.9564 39.7644 53.5952C39.9463 53.4152 40.0306 53.2054 40.0306 52.9348V34.104H51.1329C51.4352 34.104 51.652 34.0337 51.8146 33.8835C51.9688 33.7416 52.0375 33.5688 52.0375 33.3244C52.0375 33.0586 51.964 32.8643 51.8074 32.7141C51.6448 32.5592 51.4304 32.4865 51.1329 32.4865H39.0971Z" fill="#363B3F"/>
<path d="M118.351 26.7638C116.626 26.6982 114.706 24.8054 114.503 23.0031C114.287 21.1019 114.931 19.5428 116.364 18.2924C116.998 17.7381 117.655 17.2065 118.328 16.6987C119.83 15.5688 120.245 14.1193 119.701 12.3623C119.67 12.2622 119.648 12.1597 119.628 12.0572C119.624 12.0405 119.644 12.019 119.651 11.9988C121.585 12.8975 122.689 15.0014 122.074 16.7178C121.913 17.1684 121.602 17.5772 121.311 17.9694C120.984 18.4092 120.719 18.8419 121.046 19.3771C121.331 19.8456 121.798 19.9588 122.297 19.8384C122.88 19.6978 123.225 19.2949 123.275 18.6953C123.311 18.2698 123.275 17.8371 123.322 17.4127C123.429 16.4294 124.003 15.8763 124.988 15.7344C125.015 15.7738 125.065 15.8203 125.057 15.8381C124.541 16.8883 124.909 17.7846 125.528 18.6524C126.599 20.1543 126.66 21.7754 125.969 23.4215C125.263 25.1022 123.873 26.02 122.162 26.5433C122.663 25.9974 122.869 25.3775 122.767 24.6588C122.618 23.6063 121.878 22.9232 120.869 23.2391C118.909 23.853 118.512 20.6573 118.526 20.5822C118.467 20.6108 116.183 24.7839 118.354 26.7626L118.351 26.7638Z" fill="#363B3F"/>
</svg>
