<svg width="220" height="80" viewBox="0 0 220 80" fill="none" xmlns="http://www.w3.org/2000/svg">
<path d="M118.719 33.5605H110.69V31.1423C110.69 30.014 110.588 29.295 110.381 28.9854C110.175 28.6758 109.835 28.521 109.355 28.521C108.836 28.521 108.44 28.7309 108.173 29.1471C107.907 29.5633 107.774 30.1963 107.774 31.0425C107.774 32.1329 107.925 32.9516 108.223 33.502C108.51 34.0524 109.323 34.7198 110.665 35.4972C114.513 37.74 116.939 39.5803 117.937 41.0182C118.936 42.4561 119.437 44.7746 119.437 47.9703C119.437 50.2956 119.161 52.0087 118.607 53.1095C118.053 54.2102 116.981 55.1356 115.393 55.882C113.805 56.6285 111.955 57 109.849 57C107.536 57 105.559 56.57 103.926 55.71C102.289 54.8501 101.217 53.7562 100.712 52.4249C100.204 51.0937 99.9516 49.2086 99.9516 46.7628V44.6267H107.981V48.5963C107.981 49.8209 108.093 50.6052 108.321 50.9561C108.545 51.307 108.948 51.479 109.523 51.479C110.098 51.479 110.525 51.2588 110.805 50.8151C111.086 50.3713 111.226 49.7143 111.226 48.8406C111.226 46.9176 110.96 45.6621 110.423 45.0704C109.877 44.4788 108.527 43.4915 106.379 42.1087C104.231 40.7121 102.804 39.6973 102.107 39.0643C101.41 38.4314 100.831 37.5611 100.372 36.4431C99.9131 35.3286 99.6853 33.9045 99.6853 32.1708C99.6853 29.67 100.011 27.8434 100.66 26.6876C101.308 25.5318 102.359 24.6271 103.81 23.9769C105.261 23.3268 107.013 23 109.067 23C111.314 23 113.227 23.3577 114.808 24.0698C116.388 24.7819 117.436 25.6797 117.948 26.7598C118.46 27.8434 118.719 29.6803 118.719 32.274V33.5639V33.5605Z" fill="#363B3F"/>
<path d="M141.45 23.6845V56.3189H133.873L129.377 41.486V56.3189H122.15V23.6845H129.377L134.223 38.3764V23.6845H141.45Z" fill="#363B3F"/>
<path d="M165.527 23.6845L160.568 38.4176L166 56.3155H157.067L153.566 42.3288V56.3155H144.92V23.6845H153.566V36.364L157.417 23.6845H165.527Z" fill="#363B3F"/>
<path d="M56.3504 36.2952H61.5268V56.3189H53V39.5838C53 37.7675 54.5 36.2952 56.3504 36.2952Z" fill="#363B3F"/>
<path d="M66.0583 30.3304H74.8234V56.3189H62.9286V33.4023C62.9286 31.7064 64.3305 30.3304 66.0583 30.3304Z" fill="#363B3F"/>
<path d="M79.9436 23.0069H92.6024V56.3189H76.5722V26.3161C76.5757 24.4895 78.0862 23.0069 79.9436 23.0069Z" fill="#363B3F"/>
</svg>
