<svg width="220" height="80" viewBox="0 0 220 80" fill="none" xmlns="http://www.w3.org/2000/svg">
<path d="M104.022 53.88C103.621 53.6897 103.137 53.3784 102.571 52.9488C102.005 52.5192 101.441 52.0124 100.885 51.4311C100.327 50.8471 99.8566 50.2529 99.4728 49.6406C99.3989 49.6586 99.3251 49.6689 99.2538 49.6689H99.0077C97.3443 49.6689 96.0304 49.3628 95.0609 48.7531C94.0914 48.1434 93.3975 47.2637 92.9792 46.1163C92.5584 44.9716 92.3493 43.6056 92.3493 42.021L92.3493 33.3955C92.3493 31.7903 92.5584 30.4269 92.9792 29.2976C93.4 28.1708 94.0939 27.3065 95.0609 26.7045C96.0279 26.1026 97.3443 25.8016 99.0077 25.8016C100.671 25.8016 102.017 26.1026 102.994 26.7045C103.971 27.3065 104.67 28.1708 105.09 29.2976C105.511 30.4243 105.72 31.7903 105.72 33.3955V42.0184C105.72 43.1066 105.624 44.0918 105.432 44.969C105.24 45.8488 104.93 46.6128 104.5 47.2611C104.069 47.9093 103.498 48.4264 102.787 48.8071C103.023 49.0747 103.272 49.3371 103.528 49.5943C103.784 49.8516 104.04 50.0908 104.296 50.3095C104.551 50.5281 104.807 50.7056 105.063 50.8394L104.022 53.8749V53.88ZM99.0077 46.0315C99.5195 46.0315 99.8935 45.8977 100.132 45.6301C100.368 45.3626 100.526 45.0205 100.597 44.5986C100.671 44.1793 100.706 43.7497 100.706 43.3098V32.135C100.706 31.6771 100.669 31.2424 100.597 30.8308C100.523 30.4192 100.368 30.0822 100.132 29.8146C99.8935 29.5471 99.5195 29.4133 99.0077 29.4133C98.4959 29.4133 98.1268 29.5471 97.898 29.8146C97.6691 30.0822 97.524 30.4217 97.46 30.8308C97.396 31.2424 97.364 31.6745 97.364 32.135V43.3072C97.364 43.7471 97.396 44.1767 97.46 44.596C97.524 45.0153 97.6691 45.36 97.898 45.6276C98.1268 45.8951 98.4959 46.0289 99.0077 46.0289V46.0315Z" fill="#363B3F"/>
<path d="M108.818 40.7579V37.779H115.915V40.7579H108.818Z" fill="#363B3F"/>
<path d="M121.286 49.3241V29.9303L117.942 29.9303V26.1205L129.534 26.1205V29.9303H126.219V49.3241H121.286Z" fill="#363B3F"/>
<path d="M131.478 49.3241V26.1205L141.454 26.1205V29.6164H136.385V35.3736H140.248V38.9262L136.385 38.9262V45.859H141.51V49.3241H131.478Z" fill="#363B3F"/>
<path d="M143.726 49.3241V26.1205H149.836C151.335 26.1205 152.631 26.2928 153.726 26.635C154.821 26.9797 155.675 27.5945 156.288 28.482C156.901 29.3695 157.206 30.6248 157.206 32.2481C157.206 33.2025 157.132 34.0539 156.987 34.7974C156.839 35.5434 156.571 36.1865 156.177 36.7319C155.783 37.2772 155.222 37.73 154.492 38.0927L157.533 49.3241H152.464L150.026 38.9236H148.628V49.3241H143.724H143.726ZM148.63 35.973H150.001C150.695 35.973 151.234 35.8444 151.618 35.5871C152.002 35.3299 152.27 34.9569 152.427 34.4707C152.582 33.9845 152.661 33.3954 152.661 32.7085C152.661 31.7156 152.486 30.9413 152.139 30.3882C151.792 29.8351 151.153 29.5573 150.22 29.5573H148.63V35.9756V35.973Z" fill="#363B3F"/>
<path d="M160.085 49.3242L160.469 26.118H165.73L168.168 39.6106L170.801 26.1206H175.87L176.254 49.3242H172.775L172.364 33.8817L169.787 49.3242H166.692L163.951 33.7685L163.621 49.3242L160.085 49.3242Z" fill="#363B3F"/>
<path fill-rule="evenodd" clip-rule="evenodd" d="M80.4182 39.5C80.4182 29.5108 72.6724 21.413 63.1176 21.413C53.5627 21.413 45.817 29.5108 45.817 39.5C45.817 49.4891 53.5627 57.5869 63.1176 57.5869C72.6724 57.5869 80.4182 49.4891 80.4182 39.5ZM63.1176 19C73.9471 19 82.7262 28.1781 82.7262 39.5C82.7262 50.8218 73.9471 59.9999 63.1176 59.9999C52.288 59.9999 43.5089 50.8218 43.5089 39.5C43.5089 28.1781 52.288 19 63.1176 19Z" fill="#363B3F"/>
<path fill-rule="evenodd" clip-rule="evenodd" d="M78.6202 43.3844C78.6202 36.0932 72.9666 30.1825 65.9924 30.1825C59.0182 30.1825 53.3645 36.0932 53.3645 43.3844C53.3645 50.6756 59.0182 56.5863 65.9924 56.5863C72.9665 56.5863 78.6202 50.6756 78.6202 43.3844ZM65.9924 27.7695C74.2413 27.7695 80.9283 34.7605 80.9283 43.3844C80.9283 52.0082 74.2413 58.9992 65.9924 58.9992C57.7435 58.9992 51.0564 52.0082 51.0564 43.3844C51.0564 34.7605 57.7435 27.7695 65.9924 27.7695Z" fill="#363B3F"/>
<path fill-rule="evenodd" clip-rule="evenodd" d="M76.8185 47.2662C76.8185 42.673 73.2569 38.9494 68.8634 38.9494C64.4699 38.9494 60.9082 42.673 60.9082 47.2662C60.9082 51.8594 64.4698 55.583 68.8634 55.583C73.2569 55.583 76.8185 51.8594 76.8185 47.2662ZM68.8634 36.5365C74.5316 36.5365 79.1266 41.3403 79.1266 47.2662C79.1266 53.1921 74.5316 57.996 68.8634 57.996C63.1951 57.996 58.6001 53.1921 58.6001 47.2662C58.6001 41.3403 63.1951 36.5365 68.8634 36.5365Z" fill="#363B3F"/>
</svg>
