<svg width="220" height="80" viewBox="0 0 220 80" fill="none" xmlns="http://www.w3.org/2000/svg">
<path d="M103.689 19.4804H102.406V32.1237H103.689V36.3351H93.9791V32.1608H95.215V23.2187L90.8517 36.3351H87.0409L82.5465 23.3485V32.133H83.7824V36.3351H75.3555V32.1608H76.6382V19.4804H75.3555V15.3062H87.1719L89.8405 24.4338L92.3592 15.3062H103.689V19.4804Z" fill="#363B3F"/>
<path d="M105.524 36.335V32.1608H106.657V26.3168H105.524V22.1426H112.566V32.1237H113.689V36.335H105.524Z" fill="#363B3F"/>
<path d="M127.36 21.8921C127.625 21.9432 127.883 22.0273 128.127 22.1426V27.0589C127.413 26.7626 126.645 26.6142 125.871 26.623C124.962 26.5642 124.066 26.8643 123.38 27.4578C123.071 27.7933 122.835 28.1875 122.685 28.6166C122.536 29.0456 122.476 29.5004 122.509 29.9531V32.1701H124.813V36.335H115.449V32.1608H116.573V26.3168H115.449V22.1426H122.491V23.9978C122.91 23.3395 123.47 22.7793 124.129 22.3559C124.805 21.959 125.581 21.7596 126.367 21.7808C126.701 21.7828 127.034 21.8201 127.36 21.8921Z" fill="#363B3F"/>
<path d="M131.18 34.7581C130.456 34.0295 129.897 33.156 129.542 32.196C129.187 31.2361 129.043 30.212 129.12 29.1924C129.045 28.173 129.189 27.1494 129.545 26.1898C129.9 25.2301 130.457 24.3564 131.18 23.6268C132.768 22.3026 134.811 21.6379 136.882 21.7716C138.973 21.6415 141.031 22.3312 142.612 23.6917C143.317 24.4208 143.861 25.2872 144.209 26.2358C144.557 27.1845 144.702 28.1945 144.635 29.2017C144.711 30.2204 144.568 31.2436 144.214 32.2032C143.861 33.1629 143.305 34.0369 142.584 34.7674C140.995 36.0898 138.953 36.7543 136.882 36.6226C134.81 36.7537 132.766 36.0856 131.18 34.7581ZM137.949 31.697C138.229 31.3449 138.363 30.9004 138.324 30.454V27.9865C138.364 27.5429 138.23 27.1012 137.949 26.7528C137.801 26.6014 137.621 26.4839 137.422 26.4086C137.223 26.3332 137.01 26.3019 136.798 26.3168C136.593 26.3035 136.387 26.332 136.194 26.4006C136.001 26.4693 135.824 26.5765 135.674 26.7157C135.406 27.0826 135.289 27.5371 135.346 27.9865V30.4911C135.323 30.9229 135.452 31.3495 135.712 31.697C135.862 31.835 136.039 31.9408 136.232 32.0079C136.426 32.0749 136.631 32.1017 136.835 32.0866C137.038 32.1027 137.242 32.0763 137.434 32.0092C137.626 31.9421 137.802 31.8357 137.949 31.697Z" fill="#363B3F"/>
<path d="M130.964 46.2324C123.53 46.2324 118.146 50.1284 112.94 53.9038C108.062 57.4287 103.033 61.0649 96.4229 61.3246L95.599 61.3803C92.4834 61.3511 89.4156 60.6182 86.6289 59.2375C84.2248 58.0614 81.9736 56.6006 79.9248 54.887C85.8143 60.2022 91.5727 62.7624 97.0971 62.5027C103.258 62.2059 107.865 58.7273 112.734 55.0818C118.108 51.0096 123.67 46.7983 131.723 46.7333C135.027 46.7514 138.294 47.4396 141.32 48.7555C138.249 47.1721 134.855 46.2999 131.395 46.2046L130.964 46.2324Z" fill="#363B3F"/>
<path d="M80.618 56.2508C86.5637 61.8165 92.3221 64.5251 97.7903 64.2375C103.661 63.9314 108.09 60.4065 112.772 56.6775C118.146 52.4198 123.708 48.0136 131.985 47.8281C135.302 47.7702 138.598 48.3596 141.685 49.5627C138.554 48.099 135.139 47.3267 131.676 47.2994C123.802 47.2994 118.315 51.4736 113.015 55.4902C108.071 59.2006 103.408 62.7626 97.0974 63.0595H96.2453C93.0754 63.0222 89.9619 62.2232 87.1723 60.7312C84.8173 59.4982 82.6174 57.9944 80.618 56.2508Z" fill="#363B3F"/>
<path d="M94.298 55.6941C101.592 55.4715 107.023 52.1043 112.266 48.7927C117.884 45.2585 123.231 41.9191 130.468 42.522C133.531 42.8082 136.498 43.7312 139.176 45.2307C136.438 43.4859 133.336 42.3791 130.103 41.9933C123.221 41.2512 117.931 44.3865 112.397 47.7074C106.864 51.0282 101.321 54.312 93.6051 54.5253H92.8748C87.3181 54.426 81.8823 52.9015 77.0977 50.1006C82.8561 54.0337 88.5115 55.8796 94.298 55.6941Z" fill="#363B3F"/>
<path d="M112.818 52.327C107.772 55.8148 102.603 59.3769 95.721 59.6459H94.897C91.8393 59.6272 88.8204 58.9664 86.0393 57.7072C83.5759 56.6072 81.2583 55.2116 79.1386 53.5515C85.0094 58.6626 90.7022 61.0466 96.3951 60.7961C102.846 60.5271 107.631 57.0857 112.622 53.4494C117.903 49.637 123.352 45.6853 130.964 45.6853H131.404C134.649 45.7681 137.839 46.5267 140.768 47.9116C137.8 46.2649 134.492 45.313 131.096 45.1288C123.614 44.8505 118.127 48.663 112.818 52.327Z" fill="#363B3F"/>
<path d="M112.687 50.7686C107.519 54.173 102.154 57.6701 95.0187 57.9391H94.2135C88.9045 57.9391 83.6891 56.0838 78.4082 52.3085C84.2416 57.1042 89.9813 59.3398 95.6929 59.1079C102.425 58.8574 107.556 55.3139 112.547 51.8911C117.931 48.1806 123.502 44.3403 131.133 44.6464C134.401 44.8046 137.595 45.6622 140.496 47.1602C137.553 45.4042 134.232 44.3617 130.805 44.1177C123.493 43.6631 118.249 47.1139 112.687 50.7686Z" fill="#363B3F"/>
<path d="M75 48.2177C81.236 52.2157 87.4906 54.1544 93.5955 53.9874C101.17 53.7834 106.704 50.4625 112.116 47.253C117.734 43.8858 123.09 40.7133 130.159 41.4647C135.318 42.0213 140.3 44.6 145 49.136V39.2848H75V48.2177Z" fill="#363B3F"/>
<path d="M112.556 49.2381C107.247 52.5589 101.76 56.0003 94.3068 56.2322H93.5484C90.5916 56.2216 87.6587 55.707 84.878 54.711C82.3689 53.8123 79.9743 52.6262 77.7432 51.1768C83.5203 55.5736 89.2038 57.67 94.9997 57.4289C102.013 57.1877 107.284 53.7184 112.387 50.3512C118.005 46.6408 123.342 43.1344 130.786 43.6075C134.029 43.8578 137.176 44.8076 140.009 46.3903C137.116 44.5691 133.832 43.4474 130.421 43.1158C123.371 42.4665 118.118 45.7502 112.556 49.2381Z" fill="#363B3F"/>
<path d="M132.041 48.394C123.951 48.5795 118.464 52.93 113.155 57.132C108.38 60.9167 103.867 64.488 97.8277 64.8034H97.0037C93.7593 64.7406 90.5835 63.8663 87.7715 62.2617C83.633 59.9891 79.3352 56.2137 75 51.0005V66.0186H145V51.622C141.036 49.4509 136.57 48.3384 132.041 48.394Z" fill="#363B3F"/>
<path d="M108.933 21.0666C110.779 21.0666 112.275 19.7085 112.275 18.0333C112.275 16.358 110.779 15 108.933 15C107.086 15 105.59 16.358 105.59 18.0333C105.59 19.7085 107.086 21.0666 108.933 21.0666Z" fill="#363B3F"/>
</svg>
