<svg width="58" height="58" viewBox="0 0 58 58" fill="none" xmlns="http://www.w3.org/2000/svg">
<path d="M29.0003 34.47L33.2899 37.0866C33.6866 37.3375 34.087 37.3234 34.491 37.0443C34.8954 36.7656 35.045 36.3876 34.9399 35.9103L33.801 31.0026L37.6308 27.6936C38.0026 27.3621 38.1118 26.9719 37.9583 26.5228C37.8048 26.0737 37.4772 25.829 36.9753 25.7887L31.9698 25.3658L29.9948 20.7602C29.8091 20.3232 29.4776 20.1047 29.0003 20.1047C28.523 20.1047 28.1915 20.3232 28.0059 20.7602L26.0308 25.3658L21.0253 25.7887C20.5235 25.829 20.1958 26.0737 20.0423 26.5228C19.8889 26.9719 19.998 27.3621 20.3698 27.6936L24.1996 31.0026L23.0608 35.9103C22.9556 36.3876 23.1053 36.7656 23.5097 37.0443C23.9136 37.3234 24.314 37.3375 24.7107 37.0866L29.0003 34.47ZM21.4156 47.1248H15.2441C14.0389 47.1248 13.0094 46.6981 12.1556 45.8446C11.3021 44.9907 10.8753 43.9612 10.8753 42.7561V36.5845L6.38576 32.0575C5.97372 31.6209 5.66237 31.1378 5.45172 30.6081C5.24107 30.0781 5.13574 29.542 5.13574 28.9998C5.13574 28.4577 5.24107 27.9216 5.45172 27.3915C5.66237 26.8619 5.97372 26.3788 6.38576 25.9422L10.8753 21.4151V15.2436C10.8753 14.0385 11.3021 13.009 12.1556 12.1551C13.0094 11.3016 14.0389 10.8748 15.2441 10.8748H21.4156L25.9426 6.38527C26.3793 5.97323 26.8624 5.66188 27.392 5.45123C27.9221 5.24058 28.4582 5.13525 29.0003 5.13525C29.5425 5.13525 30.0786 5.24058 30.6086 5.45123C31.1383 5.66188 31.6214 5.97323 32.058 6.38527L36.585 10.8748H42.7566C43.9617 10.8748 44.9912 11.3016 45.8451 12.1551C46.6986 13.009 47.1253 14.0385 47.1253 15.2436V21.4151L51.6149 25.9422C52.0269 26.3788 52.3383 26.8619 52.5489 27.3915C52.7596 27.9216 52.8649 28.4577 52.8649 28.9998C52.8649 29.542 52.7596 30.0781 52.5489 30.6081C52.3383 31.1378 52.0269 31.6209 51.6149 32.0575L47.1253 36.5845V42.7561C47.1253 43.9612 46.6986 44.9907 45.8451 45.8446C44.9912 46.6981 43.9617 47.1248 42.7566 47.1248H36.585L32.058 51.6144C31.6214 52.0264 31.1383 52.3378 30.6086 52.5484C30.0786 52.7591 29.5425 52.8644 29.0003 52.8644C28.4582 52.8644 27.9221 52.7591 27.392 52.5484C26.8624 52.3378 26.3793 52.0264 25.9426 51.6144L21.4156 47.1248ZM22.9587 43.4998L28.4656 49.0068C28.605 49.1462 28.7832 49.2159 29.0003 49.2159C29.2174 49.2159 29.3957 49.1462 29.535 49.0068L35.042 43.4998H42.7566C42.9737 43.4998 43.1519 43.4302 43.2913 43.2908C43.4306 43.1514 43.5003 42.9732 43.5003 42.7561V35.0415L49.0073 29.5345C49.1467 29.3952 49.2163 29.2169 49.2163 28.9998C49.2163 28.7827 49.1467 28.6045 49.0073 28.4652L43.5003 22.9582V15.2436C43.5003 15.0265 43.4306 14.8482 43.2913 14.7089C43.1519 14.5695 42.9737 14.4998 42.7566 14.4998H35.042L29.535 8.99286C29.3957 8.8535 29.2174 8.78382 29.0003 8.78382C28.7832 8.78382 28.605 8.8535 28.4656 8.99286L22.9587 14.4998H15.2441C15.027 14.4998 14.8487 14.5695 14.7094 14.7089C14.57 14.8482 14.5003 15.0265 14.5003 15.2436V22.9582L8.99335 28.4652C8.85399 28.6045 8.7843 28.7827 8.7843 28.9998C8.7843 29.2169 8.85399 29.3952 8.99335 29.5345L14.5003 35.0415V42.7561C14.5003 42.9732 14.57 43.1514 14.7094 43.2908C14.8487 43.4302 15.027 43.4998 15.2441 43.4998H22.9587Z" fill="#F52121"/>
</svg>
