<svg width="58" height="58" viewBox="0 0 58 58" fill="none" xmlns="http://www.w3.org/2000/svg">
<path d="M17.5239 47.125C15.6784 47.125 14.1089 46.4789 12.8156 45.1868C11.5219 43.8943 10.875 42.3251 10.875 40.4792H7.37569C6.86215 40.4792 6.43158 40.3054 6.08398 39.9578C5.73679 39.6102 5.56319 39.1796 5.56319 38.6661C5.56319 38.1521 5.73679 37.7217 6.08398 37.375C6.43158 37.0278 6.86215 36.8542 7.37569 36.8542H12.1208C12.6815 35.9338 13.4367 35.2004 14.3864 34.6538C15.3358 34.1068 16.3806 33.8333 17.5209 33.8333C18.6611 33.8333 19.7061 34.1068 20.6559 34.6538C21.6052 35.2004 22.3604 35.9338 22.9215 36.8542H33.5452L38.7368 14.5H14.4535C13.94 14.5 13.5096 14.3262 13.1624 13.9786C12.8148 13.631 12.641 13.2004 12.641 12.6869C12.641 12.173 12.8148 11.7426 13.1624 11.3958C13.5096 11.0486 13.94 10.875 14.4535 10.875H40.5257C41.2382 10.875 41.813 11.1501 42.25 11.7003C42.6866 12.2501 42.8197 12.869 42.6494 13.5569L41.1716 19.9375H45.0334C45.7254 19.9375 46.3807 20.0922 46.9994 20.4015C47.6184 20.7112 48.1281 21.139 48.5285 21.6847L52.9667 27.5736C53.3634 28.0907 53.6182 28.6429 53.731 29.2302C53.8442 29.817 53.8482 30.422 53.7431 31.0451L52.2049 38.7319C52.0993 39.2491 51.844 39.6696 51.4388 39.9934C51.0336 40.3172 50.5732 40.4792 50.0577 40.4792H48.0542C48.0542 42.3227 47.4084 43.8911 46.1167 45.1844C44.825 46.4781 43.2565 47.125 41.4114 47.125C39.5663 47.125 37.9969 46.4789 36.7032 45.1868C35.4098 43.8943 34.7632 42.3251 34.7632 40.4792H24.1667C24.1667 42.3227 23.5208 43.8911 22.2291 45.1844C20.9374 46.4781 19.369 47.125 17.5239 47.125ZM38.4389 31.7188H49.8903L50.225 30.0084L45.4056 23.5625H40.3396L38.4389 31.7188ZM33.8986 35.432L34.252 33.8551C34.4873 32.8038 34.7861 31.517 35.1486 29.9945C35.3005 29.3625 35.4406 28.7785 35.5691 28.2424C35.6976 27.7063 35.8021 27.2246 35.8827 26.7972L36.2361 25.2203C36.4718 24.1691 36.7708 22.8822 37.1333 21.3597C37.4954 19.8372 37.7943 18.5503 38.0299 17.4991L38.3833 15.9222L38.7368 14.5L33.5452 36.8542L33.8986 35.432ZM4.87988 31.807C4.37278 31.807 3.94785 31.6332 3.60509 31.2856C3.26232 30.938 3.09094 30.5074 3.09094 29.9939C3.09094 29.4799 3.26454 29.0495 3.61173 28.7027C3.95893 28.3556 4.3893 28.182 4.90284 28.182H13.3382C13.8518 28.182 14.2821 28.3558 14.6293 28.7034C14.9769 29.051 15.1507 29.4817 15.1507 29.9957C15.1507 30.5092 14.9769 30.9396 14.6293 31.2868C14.2821 31.6336 13.8518 31.807 13.3382 31.807H4.87988ZM9.71321 23.1722C9.19967 23.1722 8.7693 22.9984 8.42211 22.6508C8.07451 22.3032 7.90071 21.8726 7.90071 21.3591C7.90071 20.8452 8.07451 20.4146 8.42211 20.0674C8.7693 19.7206 9.19967 19.5472 9.71321 19.5472H20.5882C21.1018 19.5472 21.5321 19.721 21.8793 20.0686C22.2269 20.4162 22.4007 20.8468 22.4007 21.3603C22.4007 21.8743 22.2269 22.3046 21.8793 22.6514C21.5321 22.9986 21.1018 23.1722 20.5882 23.1722H9.71321ZM17.5209 43.5C18.3607 43.5 19.074 43.2064 19.6608 42.6191C20.2481 42.0323 20.5417 41.319 20.5417 40.4792C20.5417 39.6394 20.2481 38.9261 19.6608 38.3392C19.074 37.752 18.3607 37.4583 17.5209 37.4583C16.6811 37.4583 15.9677 37.752 15.3809 38.3392C14.7937 38.9261 14.5 39.6394 14.5 40.4792C14.5 41.319 14.7937 42.0323 15.3809 42.6191C15.9677 43.2064 16.6811 43.5 17.5209 43.5ZM41.409 43.5C42.2484 43.5 42.9617 43.2064 43.549 42.6191C44.1362 42.0323 44.4298 41.319 44.4298 40.4792C44.4298 39.6394 44.1362 38.9261 43.549 38.3392C42.9617 37.752 42.2484 37.4583 41.409 37.4583C40.5692 37.4583 39.8557 37.752 39.2684 38.3392C38.6812 38.9261 38.3876 39.6394 38.3876 40.4792C38.3876 41.319 38.6812 42.0323 39.2684 42.6191C39.8557 43.2064 40.5692 43.5 41.409 43.5Z" fill="#F52121"/>
</svg>
