<svg width="11" height="7" viewBox="0 0 11 7" fill="none" xmlns="http://www.w3.org/2000/svg">
<path d="M5.33959 4.2905L9.41259 0.21725C9.55109 0.0789167 9.72517 0.00808335 9.93484 0.00475003C10.1443 0.00158337 10.3216 0.0724167 10.4666 0.21725C10.6114 0.36225 10.6838 0.537916 10.6838 0.74425C10.6838 0.950583 10.6114 1.12625 10.4666 1.27125L5.97234 5.7655C5.87867 5.859 5.77992 5.925 5.67609 5.9635C5.57225 6.002 5.46009 6.02125 5.33959 6.02125C5.21909 6.02125 5.10692 6.002 5.00309 5.9635C4.89925 5.925 4.8005 5.859 4.70684 5.7655L0.212586 1.27125C0.074253 1.13275 0.00341983 0.958666 8.67516e-05 0.748999C-0.00307944 0.539499 0.0677538 0.36225 0.212586 0.21725C0.357587 0.0724163 0.533253 -4.43696e-07 0.739587 -4.34677e-07C0.94592 -4.25658e-07 1.12159 0.0724163 1.26659 0.21725L5.33959 4.2905Z" fill="#363B3F"/>
</svg>
