<svg width="58" height="58" viewBox="0 0 58 58" fill="none" xmlns="http://www.w3.org/2000/svg">
<path d="M17.5208 47.7292V42.5237H14.5C13.9865 42.5237 13.5561 42.3501 13.2089 42.0029C12.8613 41.6553 12.6875 41.2245 12.6875 40.7106C12.6875 40.1971 12.8613 39.7667 13.2089 39.4195C13.5561 39.0727 13.9865 38.8993 14.5 38.8993H17.5208V33.1827H14.5C13.9865 33.1827 13.5561 33.0089 13.2089 32.6613C12.8613 32.3137 12.6875 31.8831 12.6875 31.3696C12.6875 30.8556 12.8613 30.4253 13.2089 30.0785C13.5561 29.7313 13.9865 29.5577 14.5 29.5577H17.5208V10.643C17.5208 10.024 17.7301 9.50519 18.1486 9.08671C18.5675 8.66782 19.0862 8.45837 19.7049 8.45837H32.9506C36.3968 8.45837 39.3188 9.65664 41.7165 12.0532C44.1138 14.4501 45.3125 17.371 45.3125 20.816C45.3125 24.2614 44.1138 27.1837 41.7165 29.5831C39.3188 31.9828 36.3968 33.1827 32.9506 33.1827H21.1458V38.8993H29C29.5135 38.8993 29.9439 39.0731 30.2911 39.4207C30.6387 39.7679 30.8125 40.1985 30.8125 40.7124C30.8125 41.226 30.6387 41.6563 30.2911 42.0035C29.9439 42.3503 29.5135 42.5237 29 42.5237H21.1458V47.7292C21.1458 48.2427 20.972 48.6731 20.6244 49.0203C20.2768 49.3679 19.8463 49.5417 19.3327 49.5417C18.8188 49.5417 18.3884 49.3679 18.0416 49.0203C17.6944 48.6731 17.5208 48.2427 17.5208 47.7292ZM21.1458 29.5577H32.9506C35.3637 29.5577 37.4231 28.7048 39.1289 26.999C40.8346 25.2929 41.6875 23.2333 41.6875 20.8202C41.6875 18.4068 40.8346 16.3474 39.1289 14.642C37.4231 12.9363 35.3637 12.0834 32.9506 12.0834H21.1458V29.5577Z" fill="#F52121"/>
</svg>
