<svg width="32" height="32" viewBox="0 0 32 32" fill="none" xmlns="http://www.w3.org/2000/svg">
<path d="M16.002 26C13.2109 26 10.8461 25.0314 8.90767 23.0943C6.96922 21.1572 6 18.7931 6 16.002C6 13.2109 6.96856 10.8461 8.90567 8.90767C10.8428 6.96922 13.2069 6 15.998 6C18.7891 6 21.1539 6.96855 23.0923 8.90567C25.0308 10.8428 26 13.2069 26 15.998C26 18.7891 25.0314 21.1539 23.0943 23.0923C21.1572 25.0308 18.7931 26 16.002 26ZM16 24C18.2222 24 20.1111 23.2222 21.6667 21.6667C23.2222 20.1111 24 18.2222 24 16C24 15.6178 23.9722 15.2412 23.9167 14.8703C23.8611 14.4994 23.7778 14.1341 23.6667 13.7743C23.3249 13.8497 22.9819 13.9061 22.6377 13.9437C22.2937 13.9812 21.9497 14 21.6057 14C20.1608 14 18.7901 13.7098 17.4937 13.1293C16.197 12.5491 15.0572 11.7222 14.0743 10.6487C13.4863 11.924 12.6671 13.0347 11.6167 13.9807C10.5662 14.9269 9.36067 15.6197 8 16.059C8.04111 18.2539 8.836 20.1261 10.3847 21.6757C11.9333 23.2252 13.8051 24 16 24ZM8.37933 13.7617C9.38289 13.2761 10.2492 12.6197 10.9783 11.7923C11.7074 10.965 12.2566 9.95211 12.6257 8.75367C11.5761 9.22389 10.6821 9.89489 9.94367 10.7667C9.20522 11.6384 8.68378 12.6368 8.37933 13.7617ZM12.7973 18.5C12.4298 18.5 12.1217 18.3757 11.873 18.127C11.6243 17.8783 11.5 17.5702 11.5 17.2027C11.5 16.8351 11.6243 16.5236 11.873 16.268C12.1217 16.0124 12.4298 15.8847 12.7973 15.8847C13.1649 15.8847 13.4764 16.0124 13.732 16.268C13.9876 16.5236 14.1153 16.8351 14.1153 17.2027C14.1153 17.5702 13.9876 17.8783 13.732 18.127C13.4764 18.3757 13.1649 18.5 12.7973 18.5ZM21.6027 12C21.8129 12 22.0167 11.9936 22.214 11.9807C22.4116 11.968 22.6112 11.9377 22.813 11.8897C22.1137 10.6932 21.1602 9.74578 19.9527 9.04733C18.7449 8.34911 17.4273 8 16 8C15.7469 8 15.5089 8.00856 15.286 8.02567C15.0629 8.04278 14.8444 8.07956 14.6307 8.136C15.4802 9.39245 16.4909 10.3506 17.6627 11.0103C18.8347 11.6701 20.148 12 21.6027 12ZM19.2077 18.5C18.8401 18.5 18.532 18.3757 18.2833 18.127C18.0347 17.8783 17.9103 17.5702 17.9103 17.2027C17.9103 16.8351 18.0347 16.5236 18.2833 16.268C18.532 16.0124 18.8401 15.8847 19.2077 15.8847C19.5752 15.8847 19.8868 16.0124 20.1423 16.268C20.3979 16.5236 20.5257 16.8351 20.5257 17.2027C20.5257 17.5702 20.3979 17.8783 20.1423 18.127C19.8868 18.3757 19.5752 18.5 19.2077 18.5ZM2 7V4.41033C2 3.73678 2.23333 3.16667 2.7 2.7C3.16667 2.23333 3.73678 2 4.41033 2H7C7.28333 2 7.52089 2.09589 7.71267 2.28767C7.90422 2.47944 8 2.717 8 3.00033C8 3.28389 7.90422 3.52133 7.71267 3.71267C7.52089 3.90422 7.28333 4 7 4H4.41033C4.30767 4 4.21367 4.04278 4.12833 4.12833C4.04278 4.21367 4 4.30767 4 4.41033V7C4 7.28333 3.90411 7.52089 3.71233 7.71267C3.52056 7.90422 3.283 8 2.99967 8C2.71611 8 2.47867 7.90422 2.28733 7.71267C2.09578 7.52089 2 7.28333 2 7ZM7 30H4.41033C3.73678 30 3.16667 29.7667 2.7 29.3C2.23333 28.8333 2 28.2632 2 27.5897V25C2 24.7167 2.09589 24.4791 2.28767 24.2873C2.47944 24.0958 2.717 24 3.00033 24C3.28389 24 3.52133 24.0958 3.71267 24.2873C3.90422 24.4791 4 24.7167 4 25V27.5897C4 27.6923 4.04278 27.7863 4.12833 27.8717C4.21367 27.9572 4.30767 28 4.41033 28H7C7.28333 28 7.52089 28.0959 7.71267 28.2877C7.90422 28.4794 8 28.717 8 29.0003C8 29.2839 7.90422 29.5213 7.71267 29.7127C7.52089 29.9042 7.28333 30 7 30ZM27.5897 30H25C24.7167 30 24.4791 29.9041 24.2873 29.7123C24.0958 29.5206 24 29.283 24 28.9997C24 28.7161 24.0958 28.4787 24.2873 28.2873C24.4791 28.0958 24.7167 28 25 28H27.5897C27.6923 28 27.7863 27.9572 27.8717 27.8717C27.9572 27.7863 28 27.6923 28 27.5897V24H30V27.5897C30 28.2632 29.7667 28.8333 29.3 29.3C28.8333 29.7667 28.2632 30 27.5897 30ZM28 7V4.41033C28 4.30767 27.9572 4.21367 27.8717 4.12833C27.7863 4.04278 27.6923 4 27.5897 4H25C24.7167 4 24.4791 3.90411 24.2873 3.71233C24.0958 3.52056 24 3.283 24 2.99967C24 2.71611 24.0958 2.47867 24.2873 2.28733C24.4791 2.09578 24.7167 2 25 2H27.5897C28.2632 2 28.8333 2.23333 29.3 2.7C29.7667 3.16667 30 3.73678 30 4.41033V7C30 7.28333 29.9041 7.52089 29.7123 7.71267C29.5206 7.90422 29.283 8 28.9997 8C28.7161 8 28.4787 7.90422 28.2873 7.71267C28.0958 7.52089 28 7.28333 28 7Z" fill="#F52121"/>
</svg>
