<svg width="38" height="38" viewBox="0 0 38 38" fill="none" xmlns="http://www.w3.org/2000/svg">
<path d="M7.046 29.5845C8.746 28.3232 10.598 27.327 12.602 26.596C14.6057 25.8653 16.7383 25.5 19 25.5C21.2617 25.5 23.3943 25.8653 25.398 26.596C27.402 27.327 29.254 28.3232 30.954 29.5845C32.1973 28.2178 33.1825 26.6358 33.9095 24.8385C34.6365 23.0412 35 21.095 35 19C35 14.5667 33.4417 10.7917 30.325 7.675C27.2083 4.55833 23.4333 3 19 3C14.5667 3 10.7917 4.55833 7.675 7.675C4.55833 10.7917 3 14.5667 3 19C3 21.095 3.3635 23.0412 4.0905 24.8385C4.8175 26.6358 5.80267 28.2178 7.046 29.5845ZM19.0005 20.5C17.1745 20.5 15.6347 19.8733 14.381 18.62C13.127 17.3663 12.5 15.8265 12.5 14.0005C12.5 12.1745 13.1267 10.6347 14.38 9.381C15.6337 8.127 17.1735 7.5 18.9995 7.5C20.8255 7.5 22.3653 8.12667 23.619 9.38C24.873 10.6337 25.5 12.1735 25.5 13.9995C25.5 15.8255 24.8733 17.3653 23.62 18.619C22.3663 19.873 20.8265 20.5 19.0005 20.5ZM19 38C16.3617 38 13.8867 37.5038 11.575 36.5115C9.26333 35.5192 7.2525 34.1678 5.5425 32.4575C3.83217 30.7475 2.48083 28.7367 1.4885 26.425C0.496167 24.1133 0 21.6383 0 19C0 16.3617 0.496167 13.8867 1.4885 11.575C2.48083 9.26333 3.83217 7.2525 5.5425 5.5425C7.2525 3.83217 9.26333 2.48083 11.575 1.4885C13.8867 0.496168 16.3617 0 19 0C21.6383 0 24.1133 0.496168 26.425 1.4885C28.7367 2.48083 30.7475 3.83217 32.4575 5.5425C34.1678 7.2525 35.5192 9.26333 36.5115 11.575C37.5038 13.8867 38 16.3617 38 19C38 21.6383 37.5038 24.1133 36.5115 26.425C35.5192 28.7367 34.1678 30.7475 32.4575 32.4575C30.7475 34.1678 28.7367 35.5192 26.425 36.5115C24.1133 37.5038 21.6383 38 19 38ZM19 35C20.805 35 22.5453 34.7097 24.221 34.129C25.8967 33.548 27.3845 32.7358 28.6845 31.6925C27.3845 30.6872 25.916 29.9038 24.279 29.3425C22.6417 28.7808 20.882 28.5 19 28.5C17.118 28.5 15.3552 28.7775 13.7115 29.3325C12.0678 29.8878 10.6025 30.6745 9.3155 31.6925C10.6155 32.7358 12.1033 33.548 13.779 34.129C15.4547 34.7097 17.195 35 19 35ZM19 17.5C19.995 17.5 20.827 17.1653 21.496 16.496C22.1653 15.827 22.5 14.995 22.5 14C22.5 13.005 22.1653 12.173 21.496 11.504C20.827 10.8347 19.995 10.5 19 10.5C18.005 10.5 17.173 10.8347 16.504 11.504C15.8347 12.173 15.5 13.005 15.5 14C15.5 14.995 15.8347 15.827 16.504 16.496C17.173 17.1653 18.005 17.5 19 17.5Z" fill="#F52121"/>
</svg>
