<svg width="30" height="38" viewBox="0 0 30 38" fill="none" xmlns="http://www.w3.org/2000/svg">
<path d="M8.8845 20.3075H21.1155C21.5405 20.3075 21.8967 20.1637 22.184 19.876C22.4717 19.5887 22.6155 19.2323 22.6155 18.807C22.6155 18.3817 22.4717 18.0255 22.184 17.7385C21.8967 17.4512 21.5405 17.3075 21.1155 17.3075H8.8845C8.4595 17.3075 8.10333 17.4513 7.816 17.739C7.52833 18.0267 7.3845 18.3832 7.3845 18.8085C7.3845 19.2335 7.52833 19.5897 7.816 19.877C8.10333 20.164 8.4595 20.3075 8.8845 20.3075ZM8.8845 26.077H21.1155C21.5405 26.077 21.8967 25.9332 22.184 25.6455C22.4717 25.3578 22.6155 25.0013 22.6155 24.576C22.6155 24.151 22.4717 23.7948 22.184 23.5075C21.8967 23.2205 21.5405 23.077 21.1155 23.077H8.8845C8.4595 23.077 8.10333 23.2208 7.816 23.5085C7.52833 23.7962 7.3845 24.1525 7.3845 24.5775C7.3845 25.0028 7.52833 25.359 7.816 25.646C8.10333 25.9333 8.4595 26.077 8.8845 26.077ZM8.8845 31.846H15.1155C15.5405 31.846 15.8967 31.7022 16.184 31.4145C16.4717 31.1268 16.6155 30.7705 16.6155 30.3455C16.6155 29.9202 16.4717 29.564 16.184 29.277C15.8967 28.9897 15.5405 28.846 15.1155 28.846H8.8845C8.4595 28.846 8.10333 28.9898 7.816 29.2775C7.52833 29.5652 7.3845 29.9217 7.3845 30.347C7.3845 30.772 7.52833 31.1282 7.816 31.4155C8.10333 31.7025 8.4595 31.846 8.8845 31.846ZM3.6155 38C2.60517 38 1.75 37.65 1.05 36.95C0.35 36.25 0 35.3948 0 34.3845V3.6155C0 2.60517 0.35 1.75 1.05 1.05C1.75 0.35 2.60517 0 3.6155 0H18.004C18.4917 0 18.9565 0.0936664 19.3985 0.281C19.8405 0.468 20.2257 0.725668 20.554 1.054L28.946 9.446C29.2743 9.77433 29.532 10.1595 29.719 10.6015C29.9063 11.0435 30 11.5083 30 11.996V34.3845C30 35.3948 29.65 36.25 28.95 36.95C28.25 37.65 27.3948 38 26.3845 38H3.6155ZM27 12H20.7115C19.9585 12 19.3183 11.7363 18.791 11.209C18.2637 10.6817 18 10.0415 18 9.2885V3H3.6155C3.4615 3 3.3205 3.06417 3.1925 3.1925C3.06417 3.3205 3 3.4615 3 3.6155V34.3845C3 34.5385 3.06417 34.6795 3.1925 34.8075C3.3205 34.9358 3.4615 35 3.6155 35H26.3845C26.5385 35 26.6795 34.9358 26.8075 34.8075C26.9358 34.6795 27 34.5385 27 34.3845V12Z" fill="#F52121"/>
</svg>
