<svg width="20" height="20" viewBox="0 0 20 20" fill="none" xmlns="http://www.w3.org/2000/svg">
<path d="M6.92359 17.0833C6.50929 17.0833 6.15464 16.9358 5.85964 16.6408C5.56464 16.3458 5.41714 15.9912 5.41714 15.5769V13.75H3.83068C3.41637 13.75 3.06172 13.6025 2.76672 13.3075C2.47172 13.0125 2.32422 12.6578 2.32422 12.2435V9.00646C2.32422 8.41618 2.52589 7.92139 2.92922 7.52209C3.33255 7.12278 3.82533 6.92313 4.40755 6.92313H15.5934C16.1837 6.92313 16.6785 7.12278 17.0778 7.52209C17.4771 7.92139 17.6767 8.41618 17.6767 9.00646V12.2435C17.6767 12.6578 17.5292 13.0125 17.2342 13.3075C16.9392 13.6025 16.5846 13.75 16.1703 13.75H14.5838V15.5769C14.5838 15.9912 14.4363 16.3458 14.1413 16.6408C13.8463 16.9358 13.4917 17.0833 13.0773 17.0833H6.92359ZM3.83068 12.5H5.41714C5.42783 12.0951 5.57908 11.7482 5.87089 11.4592C6.16283 11.1701 6.51373 11.0256 6.92359 11.0256H13.0773C13.4872 11.0256 13.838 11.1701 14.1298 11.4592C14.4218 11.7482 14.5731 12.0951 14.5838 12.5H16.1703C16.2451 12.5 16.3066 12.476 16.3546 12.4279C16.4027 12.3799 16.4267 12.3184 16.4267 12.2435V9.00646C16.4267 8.77035 16.3469 8.57243 16.1871 8.41271C16.0274 8.25299 15.8295 8.17313 15.5934 8.17313H4.40755C4.17144 8.17313 3.97352 8.25299 3.8138 8.41271C3.65408 8.57243 3.57422 8.77035 3.57422 9.00646V12.2435C3.57422 12.3184 3.59825 12.3799 3.6463 12.4279C3.69436 12.476 3.75582 12.5 3.83068 12.5ZM13.3338 6.92313V4.67958C13.3338 4.60472 13.3098 4.54327 13.2617 4.49521C13.2137 4.44715 13.1522 4.42313 13.0773 4.42313H6.92359C6.84873 4.42313 6.78727 4.44715 6.73922 4.49521C6.69116 4.54327 6.66714 4.60472 6.66714 4.67958V6.92313H5.41714V4.67958C5.41714 4.26528 5.56464 3.91063 5.85964 3.61563C6.15464 3.32063 6.50929 3.17313 6.92359 3.17313H13.0773C13.4917 3.17313 13.8463 3.32063 14.1413 3.61563C14.4363 3.91063 14.5838 4.26528 14.5838 4.67958V6.92313H13.3338ZM14.8403 10.2565C15.0764 10.2565 15.2743 10.1766 15.434 10.0169C15.5937 9.85715 15.6736 9.65924 15.6736 9.42313C15.6736 9.18702 15.5937 8.9891 15.434 8.82938C15.2743 8.66965 15.0764 8.58979 14.8403 8.58979C14.6041 8.58979 14.4062 8.66965 14.2465 8.82938C14.0868 8.9891 14.0069 9.18702 14.0069 9.42313C14.0069 9.65924 14.0868 9.85715 14.2465 10.0169C14.4062 10.1766 14.6041 10.2565 14.8403 10.2565ZM13.3338 15.5769V12.5321C13.3338 12.4572 13.3098 12.3958 13.2617 12.3477C13.2137 12.2997 13.1522 12.2756 13.0773 12.2756H6.92359C6.84873 12.2756 6.78727 12.2997 6.73922 12.3477C6.69116 12.3958 6.66714 12.4572 6.66714 12.5321V15.5769C6.66714 15.6517 6.69116 15.7132 6.73922 15.7613C6.78727 15.8093 6.84873 15.8333 6.92359 15.8333H13.0773C13.1522 15.8333 13.2137 15.8093 13.2617 15.7613C13.3098 15.7132 13.3338 15.6517 13.3338 15.5769ZM3.83068 8.17313H3.57422H16.4267H3.83068Z" fill="#1F1F1F"/>
</svg>
