<svg width="18" height="18" viewBox="0 0 18 18" fill="none" xmlns="http://www.w3.org/2000/svg">
<path d="M15.363 2.63508C11.8478 -0.879103 6.14926 -0.878259 2.63508 2.63701C-0.879103 6.15228 -0.878259 11.8507 2.63701 15.3649C6.15228 18.8791 11.8507 18.8783 15.3649 15.363C16.2005 14.5271 16.8633 13.5349 17.3154 12.4429C17.7676 11.3509 18.0002 10.1805 18 8.99864C17.9998 7.81674 17.7669 6.64645 17.3144 5.55459C16.8619 4.46273 16.1988 3.47068 15.363 2.63508ZM13.6302 12.5369L13.629 12.5381V12.5351L13.173 12.9881C12.883 13.2817 12.5222 13.4956 12.1254 13.6091C11.7287 13.7226 11.3094 13.7319 10.908 13.6361C10.0855 13.4159 9.30361 13.0655 8.59198 12.5981C7.93082 12.1756 7.31813 11.6816 6.76498 11.1251C6.25604 10.6199 5.79877 10.0651 5.39997 9.46909C4.96376 8.82778 4.61848 8.12914 4.37397 7.39308C4.23654 6.96912 4.21988 6.51527 4.32586 6.08237C4.43183 5.64947 4.65625 5.25463 4.97398 4.9421L5.50797 4.40811C5.65644 4.25898 5.89768 4.25845 6.04677 4.40691L6.04797 4.40811L7.73396 6.0941C7.88309 6.24256 7.88362 6.4838 7.73515 6.6329L7.73396 6.6341L6.74396 7.62409C6.4599 7.90506 6.42418 8.35155 6.65997 8.6741C7.01805 9.16551 7.41427 9.62794 7.84498 10.0571C8.32518 10.5394 8.84723 10.9781 9.40497 11.3681C9.72724 11.5929 10.1642 11.555 10.443 11.2781L11.3999 10.3061C11.5484 10.157 11.7896 10.1565 11.9387 10.3049L11.9399 10.3061L13.6289 11.9981C13.7781 12.1466 13.7786 12.3878 13.6302 12.5369Z" fill="white"/>
</svg>
