<svg width="32" height="32" viewBox="0 0 32 32" fill="none" xmlns="http://www.w3.org/2000/svg">
<path d="M5.95884 16.7826C7.82924 15.7523 9.91711 14.8924 11.8679 14.0282C15.224 12.6126 18.5935 11.2215 21.997 9.92642C22.6592 9.70577 23.849 9.49001 23.9656 10.4713C23.9017 11.8604 23.6389 13.2413 23.4587 14.6222C23.0012 17.659 22.4724 20.6854 21.9567 23.7122C21.779 24.7205 20.516 25.2424 19.7079 24.5972C17.7658 23.2853 15.8087 21.9862 13.8914 20.644C13.2633 20.0058 13.8457 19.0893 14.4066 18.6336C16.0062 17.0572 17.7026 15.7178 19.2186 14.06C19.6276 13.0725 18.4193 13.9047 18.0207 14.1597C15.8309 15.6688 13.6946 17.27 11.3858 18.5962C10.2065 19.2454 8.83194 18.6907 7.65314 18.3284C6.59622 17.8908 5.0474 17.4499 5.95874 16.7827L5.95884 16.7826Z" fill="#363B3F"/>
</svg>
