<svg width="20" height="20" viewBox="0 0 20 20" fill="none" xmlns="http://www.w3.org/2000/svg">
<path d="M14.0052 17.9167C13.3815 17.9167 12.8519 17.6986 12.4165 17.2623C11.9812 16.826 11.7636 16.2963 11.7636 15.6731C11.7636 15.5898 11.7924 15.3873 11.85 15.0656L5.92378 11.5769C5.72294 11.7852 5.48433 11.9484 5.20794 12.0665C4.93155 12.1845 4.63544 12.2436 4.31961 12.2436C3.69864 12.2436 3.17079 12.0245 2.73607 11.5865C2.30135 11.1484 2.08398 10.6196 2.08398 10C2.08398 9.38043 2.30135 8.85161 2.73607 8.41355C3.17079 7.9755 3.69864 7.75647 4.31961 7.75647C4.63544 7.75647 4.93155 7.8155 5.20794 7.93355C5.48433 8.05161 5.72294 8.2148 5.92378 8.42313L11.85 4.9423C11.817 4.8398 11.7943 4.73939 11.7819 4.64105C11.7697 4.54272 11.7636 4.438 11.7636 4.32688C11.7636 3.70369 11.9818 3.17397 12.4184 2.73772C12.855 2.30147 13.3852 2.08334 14.009 2.08334C14.6327 2.08334 15.1622 2.30168 15.5975 2.73834C16.0329 3.17487 16.2507 3.70501 16.2507 4.32876C16.2507 4.95251 16.0325 5.48209 15.5963 5.91751C15.16 6.35279 14.6303 6.57043 14.0071 6.57043C13.6897 6.57043 13.3946 6.51008 13.1217 6.38938C12.8486 6.26869 12.6117 6.10418 12.4109 5.89584L6.48461 9.38459C6.51767 9.48723 6.54037 9.58765 6.55273 9.68584C6.56496 9.78418 6.57107 9.8889 6.57107 10C6.57107 10.1111 6.56496 10.2158 6.55273 10.3142C6.54037 10.4124 6.51767 10.5128 6.48461 10.6154L12.4109 14.1042C12.6117 13.8958 12.8486 13.7313 13.1217 13.6106C13.3946 13.4899 13.6897 13.4296 14.0071 13.4296C14.6303 13.4296 15.16 13.6479 15.5963 14.0844C16.0325 14.5211 16.2507 15.0513 16.2507 15.675C16.2507 16.2988 16.0323 16.8283 15.5957 17.2636C15.1591 17.699 14.629 17.9167 14.0052 17.9167ZM14.0071 16.6667C14.2886 16.6667 14.5246 16.5715 14.715 16.3811C14.9054 16.1906 15.0007 15.9547 15.0007 15.6731C15.0007 15.3916 14.9054 15.1556 14.715 14.9652C14.5246 14.7747 14.2886 14.6794 14.0071 14.6794C13.7256 14.6794 13.4896 14.7747 13.2992 14.9652C13.1086 15.1556 13.0134 15.3916 13.0134 15.6731C13.0134 15.9547 13.1086 16.1906 13.2992 16.3811C13.4896 16.5715 13.7256 16.6667 14.0071 16.6667ZM4.31961 10.9936C4.60336 10.9936 4.84121 10.8983 5.03315 10.7079C5.22523 10.5175 5.32128 10.2815 5.32128 10C5.32128 9.71848 5.22523 9.48251 5.03315 9.29209C4.84121 9.10168 4.60336 9.00647 4.31961 9.00647C4.0403 9.00647 3.80621 9.10168 3.61732 9.29209C3.42843 9.48251 3.33398 9.71848 3.33398 10C3.33398 10.2815 3.42843 10.5175 3.61732 10.7079C3.80621 10.8983 4.0403 10.9936 4.31961 10.9936ZM14.0071 5.32064C14.2886 5.32064 14.5246 5.22536 14.715 5.0348C14.9054 4.84438 15.0007 4.60841 15.0007 4.32688C15.0007 4.04536 14.9054 3.80939 14.715 3.61897C14.5246 3.42855 14.2886 3.33334 14.0071 3.33334C13.7256 3.33334 13.4896 3.42855 13.2992 3.61897C13.1086 3.80939 13.0134 4.04536 13.0134 4.32688C13.0134 4.60841 13.1086 4.84438 13.2992 5.0348C13.4896 5.22536 13.7256 5.32064 14.0071 5.32064Z" fill="#1F1F1F"/>
</svg>
