<svg width="32" height="32" viewBox="0 0 32 32" fill="none" xmlns="http://www.w3.org/2000/svg">
<path d="M21.3205 17.6499C21.2611 17.5507 21.1026 17.4913 20.8649 17.3722C20.6272 17.2532 19.4584 16.6782 19.2405 16.5988C19.0226 16.5195 18.8641 16.4799 18.7056 16.7178C18.5472 16.9557 18.0916 17.4913 17.9529 17.6499C17.8142 17.8085 17.6755 17.8284 17.4379 17.7094C17.2002 17.5904 16.4342 17.3394 15.5261 16.5295C14.8194 15.8991 14.3423 15.1207 14.2037 14.8827C14.065 14.6447 14.1889 14.516 14.3079 14.3975C14.4148 14.291 14.5456 14.1198 14.6645 13.981C14.7833 13.8422 14.823 13.743 14.9022 13.5845C14.9814 13.4257 14.9418 13.287 14.8824 13.168C14.823 13.049 14.3475 11.8788 14.1494 11.4028C13.9565 10.9393 13.7605 11.0021 13.6146 10.9947C13.4761 10.9878 13.3174 10.9863 13.1589 10.9863C13.0005 10.9863 12.7429 11.0458 12.525 11.2838C12.3071 11.5218 11.693 12.097 11.693 13.267C11.693 14.4371 12.5448 15.5676 12.6637 15.7262C12.7825 15.8849 14.34 18.286 16.7247 19.3157C17.2919 19.5607 17.7347 19.707 18.0799 19.8165C18.6494 19.9975 19.1677 19.9719 19.5772 19.9107C20.034 19.8425 20.9837 19.3357 21.1819 18.7804C21.3799 18.225 21.3799 17.749 21.3205 17.6499Z" fill="#363B3F"/>
<path d="M16.5271 6.6167C18.8734 6.61774 21.0717 7.52955 22.7273 9.18701C24.3828 10.8445 25.2926 13.0441 25.2917 15.3872C25.2898 20.2178 21.3587 24.1499 16.5271 24.1519H16.5241C15.0569 24.1513 13.6149 23.7832 12.3357 23.0854L12.0749 22.9429L11.7868 23.0181L7.99973 24.0112L9.00656 20.3345L9.08859 20.0327L8.93234 19.7622C8.16578 18.4337 7.76274 16.9259 7.7634 15.3804C7.76532 10.6997 11.4555 6.86379 16.0769 6.62842L16.5271 6.6167Z" stroke="#363B3F" stroke-width="1.5"/>
</svg>
