<svg width="32" height="32" viewBox="0 0 32 32" fill="none" xmlns="http://www.w3.org/2000/svg">
<path fill-rule="evenodd" clip-rule="evenodd" d="M26.1295 10.954C26.2875 10.4572 26.1295 10.0958 25.4294 10.0958H23.1034C22.5162 10.0958 22.2452 10.412 22.0871 10.7507C22.0871 10.7507 20.8902 13.6413 19.2191 15.5157C18.6771 16.0577 18.4287 16.2384 18.1351 16.2384C17.977 16.2384 17.7738 16.0577 17.7738 15.5609V10.9314C17.7738 10.3442 17.5931 10.0732 17.0963 10.0732H13.4379C13.0765 10.0732 12.8507 10.3442 12.8507 10.6152C12.8507 11.1798 13.6863 11.3153 13.7766 12.8961V16.3287C13.7766 17.0739 13.6411 17.2094 13.3475 17.2094C12.5571 17.2094 10.6376 14.2962 9.48585 10.9766C9.26002 10.3217 9.0342 10.0732 8.44704 10.0732H6.09842C5.42093 10.0732 5.30801 10.3894 5.30801 10.7281C5.30801 11.3379 6.09842 14.4092 8.98903 18.4741C10.9086 21.2518 13.6411 22.7423 16.1027 22.7423C17.5931 22.7423 17.7738 22.4035 17.7738 21.8389V19.7387C17.7738 19.0612 17.9093 18.9483 18.3835 18.9483C18.7223 18.9483 19.332 19.129 20.7096 20.4614C22.2904 22.0422 22.5614 22.7648 23.4421 22.7648H25.7681C26.4456 22.7648 26.7618 22.4261 26.5811 21.7712C26.3779 21.1163 25.6101 20.1678 24.6164 19.0387C24.0744 18.4063 23.2614 17.7063 23.013 17.3675C22.6743 16.9159 22.7646 16.7352 23.013 16.3287C22.9904 16.3287 25.8359 12.309 26.1295 10.954Z" fill="#363B3F"/>
</svg>
