<svg width="70" height="51" viewBox="0 0 70 51" fill="none" xmlns="http://www.w3.org/2000/svg">
<g clip-path="url(#clip0_34682_4563)">
<path d="M28.6888 4.4804H27.406V17.1237H28.6888V21.3351H18.9791V17.1608H20.215V8.21867L15.8517 21.3351H12.0409L7.54648 8.34853V17.133H8.78243V21.3351H0.355469V17.1608H1.63824V4.4804H0.355469V0.306152H12.1719L14.8405 9.43384L17.3592 0.306152H28.6888V4.4804Z" fill="#F52121"/>
<path d="M30.5244 21.335V17.1608H31.6573V11.3168H30.5244V7.1426H37.5656V17.1237H38.6891V21.335H30.5244Z" fill="#F52121"/>
<path d="M52.3595 6.89214C52.6251 6.94316 52.8831 7.02732 53.1273 7.1426V12.0589C52.4131 11.7626 51.6451 11.6142 50.8708 11.623C49.9618 11.5642 49.0663 11.8643 48.3801 12.4578C48.0714 12.7933 47.835 13.1875 47.6853 13.6166C47.5355 14.0456 47.4757 14.5004 47.5094 14.9531V17.1701H49.8127V21.335H40.4494V17.1608H41.573V11.3168H40.4494V7.1426H47.4906V8.99782C47.9105 8.3395 48.4695 7.77931 49.1292 7.35595C49.8055 6.95895 50.5813 6.75957 51.367 6.78083C51.7009 6.78276 52.0337 6.82008 52.3595 6.89214V6.89214Z" fill="#F52121"/>
<path d="M56.1798 19.7581C55.4557 19.0295 54.8974 18.156 54.5421 17.196C54.1868 16.2361 54.0428 15.212 54.1199 14.1924C54.0447 13.173 54.1895 12.1494 54.5447 11.1898C54.8998 10.2301 55.4572 9.35641 56.1798 8.62678C57.7677 7.30264 59.8108 6.6379 61.882 6.77156C63.9725 6.6415 66.0308 7.33119 67.6124 8.69171C68.317 9.4208 68.8607 10.2872 69.2089 11.2359C69.5571 12.1845 69.7022 13.1945 69.6348 14.2017C69.7113 15.2204 69.5679 16.2436 69.2144 17.2032C68.8608 18.1629 68.3051 19.0369 67.5843 19.7674C65.9954 21.0898 63.953 21.7543 61.882 21.6226C59.8096 21.7537 57.7663 21.0856 56.1798 19.7581V19.7581ZM62.9494 16.697C63.2293 16.3449 63.3632 15.9004 63.324 15.454V12.9865C63.3636 12.5429 63.2295 12.1012 62.9494 11.7528C62.8012 11.6014 62.6212 11.4839 62.4223 11.4086C62.2234 11.3332 62.0102 11.3019 61.7978 11.3168C61.5929 11.3035 61.3874 11.332 61.1941 11.4006C61.0009 11.4693 60.8239 11.5765 60.6742 11.7157C60.4057 12.0826 60.2885 12.5371 60.3464 12.9865V15.4911C60.3226 15.9229 60.4517 16.3495 60.7116 16.697C60.8618 16.835 61.0391 16.9408 61.2324 17.0079C61.4257 17.0749 61.6309 17.1017 61.8352 17.0866C62.0381 17.1027 62.2422 17.0763 62.4342 17.0092C62.6261 16.9421 62.8017 16.8357 62.9494 16.697V16.697Z" fill="#F52121"/>
<path d="M55.9641 31.2327C48.5297 31.2327 43.1458 35.1286 37.9398 38.904C33.0615 42.4289 28.0334 46.0651 21.4229 46.3249L20.599 46.3805C17.4834 46.3513 14.4156 45.6185 11.6289 44.2378C9.22478 43.0616 6.97362 41.6008 4.9248 39.8873C10.8143 45.2025 16.5727 47.7627 22.0971 47.5029C28.2581 47.2061 32.8649 43.7276 37.7338 40.0821C43.1083 36.0099 48.6701 31.7985 56.7226 31.7336C60.0275 31.7517 63.2936 32.4399 66.3199 33.7558C63.2491 32.1723 59.8554 31.3001 56.3949 31.2048L55.9641 31.2327Z" fill="#F52121"/>
<path d="M5.61798 41.2508C11.5637 46.8165 17.3221 49.5251 22.7903 49.2375C28.6611 48.9314 33.0899 45.4065 37.7715 41.6775C43.1461 37.4198 48.7079 33.0136 56.985 32.8281C60.302 32.7702 63.5982 33.3596 66.6854 34.5627C63.5538 33.099 60.1386 32.3267 56.676 32.2994C48.8015 32.2994 43.3146 36.4736 38.015 40.4902C33.0712 44.2006 28.4082 47.7626 22.0974 48.0595H21.2453C18.0754 48.0222 14.9619 47.2232 12.1723 45.7312C9.81732 44.4982 7.61736 42.9943 5.61798 41.2508V41.2508Z" fill="#F52121"/>
<path d="M19.298 40.6943C26.592 40.4717 32.0227 37.1045 37.2662 33.7929C42.8842 30.2587 48.2306 26.9193 55.4684 27.5223C58.531 27.8085 61.4982 28.7314 64.1763 30.2309C61.4379 28.4862 58.3357 27.3793 55.1033 26.9935C48.2212 26.2515 42.931 29.3868 37.3973 32.7076C31.8636 36.0285 26.3205 39.3122 18.6051 39.5256H17.8748C12.3181 39.4262 6.88234 37.9018 2.09766 35.1009C7.85608 39.0339 13.5115 40.8799 19.298 40.6943Z" fill="#F52121"/>
<path d="M37.8184 37.327C32.7715 40.8148 27.603 44.3769 20.721 44.6459H19.897C16.8393 44.6272 13.8204 43.9664 11.0393 42.7072C8.57591 41.6072 6.25829 40.2116 4.13858 38.5515C10.0094 43.6626 15.7023 46.0466 21.3951 45.7961C27.8464 45.5271 32.6311 42.0857 37.6217 38.4494C42.9026 34.637 48.3521 30.6853 55.9644 30.6853H56.4045C59.6487 30.7681 62.839 31.5267 65.7678 32.9116C62.8003 31.2649 59.4917 30.313 56.0955 30.1288C48.6142 29.8505 43.1273 33.663 37.8184 37.327Z" fill="#F52121"/>
<path d="M37.6873 35.7686C32.5187 39.173 27.1536 42.6701 20.0187 42.9391H19.2135C13.9045 42.9391 8.68913 41.0838 3.40823 37.3085C9.24157 42.1042 14.9813 44.3398 20.6929 44.1079C27.4251 43.8574 32.5562 40.3139 37.5468 36.8911C42.9307 33.1806 48.5019 29.3403 56.133 29.6464C59.4007 29.8046 62.595 30.6622 65.4962 32.1602C62.5528 30.4042 59.2323 29.3617 55.8052 29.1177C48.4925 28.6631 43.2491 32.1139 37.6873 35.7686Z" fill="#F52121"/>
<path d="M0 33.2177C6.23595 37.2157 12.4906 39.1544 18.5955 38.9874C26.1704 38.7834 31.7041 35.4625 37.1161 32.253C42.7341 28.8858 48.0899 25.7133 55.1592 26.4647C60.3183 27.0213 65.2996 29.6 70 34.136V24.2848H0V33.2177Z" fill="#F52121"/>
<path d="M37.5559 34.2381C32.2469 37.5589 26.76 41.0003 19.3068 41.2322H18.5484C15.5916 41.2216 12.6587 40.707 9.878 39.711C7.36886 38.8123 4.97433 37.6262 2.74316 36.1768C8.52032 40.5736 14.2038 42.67 19.9997 42.4289C27.0128 42.1877 32.2844 38.7184 37.3874 35.3512C43.0053 31.6408 48.3424 28.1344 55.7862 28.6075C59.0285 28.8578 62.1764 29.8076 65.0091 31.3903C62.1165 29.5691 58.832 28.4474 55.4211 28.1158C48.3705 27.4665 43.1177 30.7502 37.5559 34.2381Z" fill="#F52121"/>
<path d="M57.0412 33.394C48.9513 33.5795 43.4644 37.93 38.1554 42.1321C33.3801 45.9167 28.867 49.488 22.8277 49.8034H22.0037C18.7593 49.7406 15.5835 48.8663 12.7715 47.2617C8.63296 44.9891 4.33521 41.2137 0 36.0006V51.0186H70V36.622C66.0361 34.4509 61.5703 33.3384 57.0412 33.394Z" fill="#F52121"/>
<path d="M33.9326 6.06657C35.7787 6.06657 37.2753 4.70852 37.2753 3.03328C37.2753 1.35805 35.7787 0 33.9326 0C32.0865 0 30.5899 1.35805 30.5899 3.03328C30.5899 4.70852 32.0865 6.06657 33.9326 6.06657Z" fill="#F52121"/>
</g>
<defs>
<clipPath id="clip0_34682_4563">
<rect width="70" height="51" fill="white"/>
</clipPath>
</defs>
</svg>
