<svg width="0" height="0">
	<symbol xmlns="http://www.w3.org/2000/svg" id="favorite" viewBox="0 0 24 24">
		<path d="M11.9905 19.7095C11.7763 19.7095 11.5612 19.6711 11.3453 19.5943C11.1293 19.5173 10.9392 19.3968 10.775 19.2327L9.3385 17.927C7.5655 16.3103 5.9825 14.7222 4.5895 13.1625C3.1965 11.6028 2.5 9.932 2.5 8.15C2.5 6.73083 2.9785 5.54267 3.9355 4.5855C4.89267 3.6285 6.08083 3.15 7.5 3.15C8.30633 3.15 9.10283 3.33592 9.8895 3.70775C10.676 4.07958 11.3795 4.68342 12 5.51925C12.6205 4.68342 13.324 4.07958 14.1105 3.70775C14.8972 3.33592 15.6937 3.15 16.5 3.15C17.9192 3.15 19.1073 3.6285 20.0645 4.5855C21.0215 5.54267 21.5 6.73083 21.5 8.15C21.5 9.95133 20.7917 11.6408 19.375 13.2183C17.9583 14.7958 16.3788 16.3704 14.6365 17.9423L13.2153 19.2327C13.0512 19.3968 12.8597 19.5173 12.6405 19.5943C12.4212 19.6711 12.2045 19.7095 11.9905 19.7095ZM11.2808 7.0385C10.7398 6.21417 10.1702 5.61 9.572 5.226C8.974 4.842 8.28333 4.65 7.5 4.65C6.5 4.65 5.66667 4.98333 5 5.65C4.33333 6.31667 4 7.15 4 8.15C4 8.9525 4.25867 9.79158 4.776 10.6673C5.29333 11.5429 5.94267 12.4134 6.724 13.2788C7.50533 14.1443 8.35183 14.9898 9.2635 15.8153C10.175 16.6409 11.0198 17.4083 11.798 18.1173C11.8557 18.1686 11.923 18.1943 12 18.1943C12.077 18.1943 12.1443 18.1686 12.202 18.1173C12.9802 17.4083 13.825 16.6409 14.7365 15.8153C15.6482 14.9898 16.4947 14.1443 17.276 13.2788C18.0573 12.4134 18.7067 11.5429 19.224 10.6673C19.7413 9.79158 20 8.9525 20 8.15C20 7.15 19.6667 6.31667 19 5.65C18.3333 4.98333 17.5 4.65 16.5 4.65C15.7167 4.65 15.026 4.842 14.428 5.226C13.8298 5.61 13.2603 6.21417 12.7192 7.0385C12.6346 7.16667 12.5282 7.26284 12.4 7.327C12.2718 7.391 12.1385 7.423 12 7.423C11.8615 7.423 11.7282 7.391 11.6 7.327C11.4718 7.26284 11.3654 7.16667 11.2808 7.0385Z"/>
	</symbol>
	<symbol xmlns="http://www.w3.org/2000/svg" id="compare" viewBox="0 0 24 24">
		<path d="M17.5 19.75C17.5 19.9625 17.4281 20.1406 17.2843 20.2843C17.1404 20.4281 16.9623 20.5 16.7498 20.5C16.5371 20.5 16.359 20.4281 16.2155 20.2843C16.0718 20.1406 16 19.9625 16 19.75L16 15.875C16 15.6625 16.0719 15.4844 16.2158 15.3408C16.3596 15.1969 16.5378 15.125 16.7503 15.125C16.9629 15.125 17.141 15.1969 17.2845 15.3408C17.4282 15.4844 17.5 15.6625 17.5 15.875L17.5 19.75ZM12.75 19.75C12.75 19.9625 12.6781 20.1406 12.5343 20.2843C12.3904 20.4281 12.2123 20.5 11.9998 20.5C11.7871 20.5 11.609 20.4281 11.4655 20.2843C11.3218 20.1406 11.25 19.9625 11.25 19.75L11.25 10.0673C11.25 9.85475 11.3219 9.67667 11.4658 9.533C11.6096 9.38917 11.7878 9.31725 12.0003 9.31725C12.2129 9.31725 12.391 9.38917 12.5345 9.533C12.6782 9.67667 12.75 9.85475 12.75 10.0673L12.75 19.75ZM8 19.75C8 19.9625 7.92808 20.1406 7.78425 20.2843C7.64042 20.4281 7.46225 20.5 7.24975 20.5C7.03708 20.5 6.859 20.4281 6.7155 20.2843C6.57183 20.1406 6.5 19.9625 6.5 19.75L6.5 4.25C6.5 4.0375 6.57192 3.85942 6.71575 3.71575C6.85958 3.57192 7.03775 3.5 7.25025 3.5C7.46292 3.5 7.641 3.57192 7.7845 3.71575C7.92817 3.85942 8 4.0375 8 4.25L8 19.75Z"/>
	</symbol>
	<symbol xmlns="http://www.w3.org/2000/svg" id="orders" viewBox="0 0 24 24">
		<path d="M4.5 17.6922V7.6L2.95 4.22125C2.86534 4.03525 2.86025 3.84358 2.93475 3.64625C3.00909 3.44875 3.13917 3.30775 3.325 3.22325C3.51084 3.13858 3.7025 3.13083 3.9 3.2C4.0975 3.26933 4.2385 3.39692 4.323 3.58275L6.14225 7.55H17.8578L19.677 3.58275C19.7615 3.39692 19.9025 3.26675 20.1 3.19225C20.2975 3.11792 20.4892 3.12825 20.675 3.22325C20.8608 3.30775 20.9909 3.44875 21.0653 3.64625C21.1398 3.84358 21.1347 4.03525 21.05 4.22125L19.5 7.6V17.6922C19.5 18.1909 19.3234 18.6169 18.9703 18.9702C18.6169 19.3234 18.1909 19.5 17.6923 19.5H6.30775C5.80909 19.5 5.38309 19.3234 5.02975 18.9702C4.67659 18.6169 4.5 18.1909 4.5 17.6922ZM10 12.75H14C14.2128 12.75 14.391 12.6782 14.5345 12.5345C14.6782 12.391 14.75 12.2128 14.75 12C14.75 11.7872 14.6782 11.609 14.5345 11.4655C14.391 11.3218 14.2128 11.25 14 11.25H10C9.78717 11.25 9.609 11.3218 9.4655 11.4655C9.32184 11.609 9.25 11.7872 9.25 12C9.25 12.2128 9.32184 12.391 9.4655 12.5345C9.609 12.6782 9.78717 12.75 10 12.75ZM6.30775 18H17.6923C17.7821 18 17.8558 17.9712 17.9135 17.9135C17.9712 17.8558 18 17.7821 18 17.6922V9.05H6V17.6922C6 17.7821 6.02884 17.8558 6.0865 17.9135C6.14417 17.9712 6.21792 18 6.30775 18Z"/>
	</symbol>
	<symbol xmlns="http://www.w3.org/2000/svg" id="cart" viewBox="0 0 24 24">
		<path d="M7.15375 21.5578C6.66792 21.5578 6.25483 21.3875 5.9145 21.047C5.57417 20.7067 5.404 20.2936 5.404 19.8078C5.404 19.3218 5.57417 18.9086 5.9145 18.5683C6.25483 18.2279 6.66792 18.0577 7.15375 18.0577C7.63975 18.0577 8.05292 18.2279 8.39325 18.5683C8.73358 18.9086 8.90375 19.3218 8.90375 19.8078C8.90375 20.2936 8.73358 20.7067 8.39325 21.047C8.05292 21.3875 7.63975 21.5578 7.15375 21.5578ZM16.8463 21.5578C16.3603 21.5578 15.9471 21.3875 15.6068 21.047C15.2664 20.7067 15.0963 20.2936 15.0963 19.8078C15.0963 19.3218 15.2664 18.9086 15.6068 18.5683C15.9471 18.2279 16.3603 18.0577 16.8463 18.0577C17.3321 18.0577 17.7452 18.2279 18.0855 18.5683C18.4258 18.9086 18.596 19.3218 18.596 19.8078C18.596 20.2936 18.4258 20.7067 18.0855 21.047C17.7452 21.3875 17.3321 21.5578 16.8463 21.5578ZM6.01525 5.75L8.55 11.0577H15.3673C15.4249 11.0577 15.4763 11.0433 15.5213 11.0145C15.5661 10.9857 15.6045 10.9456 15.6365 10.8943L18.3193 6.01925C18.3578 5.94875 18.3609 5.88625 18.3288 5.83175C18.2968 5.77725 18.2423 5.75 18.1653 5.75H6.01525ZM5.29625 4.25H19.1808C19.5898 4.25 19.899 4.42408 20.1085 4.77225C20.3182 5.12025 20.3282 5.47567 20.1385 5.8385L16.9345 11.6423C16.7705 11.9307 16.5536 12.1554 16.2838 12.3162C16.0138 12.4773 15.7179 12.5577 15.3963 12.5577H8.1L6.94225 14.673C6.89092 14.75 6.88933 14.8333 6.9375 14.923C6.9855 15.0128 7.05758 15.0577 7.15375 15.0577H17.8463C18.0589 15.0577 18.2371 15.1295 18.3808 15.273C18.5243 15.4167 18.596 15.5949 18.596 15.8077C18.596 16.0206 18.5243 16.1988 18.3808 16.3422C18.2371 16.4859 18.0589 16.5577 17.8463 16.5577H7.15375C6.48708 16.5577 5.98617 16.2703 5.651 15.6953C5.31567 15.1202 5.30383 14.5462 5.6155 13.973L7.04225 11.4078L3.404 3.75H2.25C2.03717 3.75 1.859 3.67817 1.7155 3.5345C1.57183 3.391 1.5 3.21283 1.5 3C1.5 2.78717 1.57183 2.609 1.7155 2.4655C1.859 2.32183 2.03717 2.25 2.25 2.25H3.77875C3.94942 2.25 4.10842 2.29517 4.25575 2.3855C4.40325 2.476 4.51542 2.60325 4.59225 2.76725L5.29625 4.25Z"/>
	</symbol>
	<symbol xmlns="http://www.w3.org/2000/svg" id="user" viewBox="0 0 24 24">
		<path d="M6.023 17.2923C6.873 16.6616 7.799 16.1635 8.801 15.798C9.80283 15.4327 10.8692 15.25 12 15.25C13.1308 15.25 14.1972 15.4327 15.199 15.798C16.201 16.1635 17.127 16.6616 17.977 17.2923C18.5987 16.6089 19.0912 15.8179 19.4548 14.9192C19.8183 14.0206 20 13.0475 20 12C20 9.78333 19.2208 7.89583 17.6625 6.3375C16.1042 4.77917 14.2167 4 12 4C9.78333 4 7.89583 4.77917 6.3375 6.3375C4.77917 7.89583 4 9.78333 4 12C4 13.0475 4.18175 14.0206 4.54525 14.9192C4.90875 15.8179 5.40133 16.6089 6.023 17.2923ZM12.0003 12.75C11.0873 12.75 10.3173 12.4367 9.6905 11.81C9.0635 11.1832 8.75 10.4133 8.75 9.50025C8.75 8.58725 9.06333 7.81733 9.69 7.1905C10.3168 6.5635 11.0868 6.25 11.9998 6.25C12.9128 6.25 13.6827 6.56333 14.3095 7.19C14.9365 7.81683 15.25 8.58675 15.25 9.49975C15.25 10.4127 14.9367 11.1827 14.31 11.8095C13.6832 12.4365 12.9132 12.75 12.0003 12.75ZM12 21.5C10.6808 21.5 9.44333 21.2519 8.2875 20.7558C7.13167 20.2596 6.12625 19.5839 5.27125 18.7288C4.41608 17.8738 3.74042 16.8683 3.24425 15.7125C2.74808 14.5567 2.5 13.3192 2.5 12C2.5 10.6808 2.74808 9.44333 3.24425 8.2875C3.74042 7.13167 4.41608 6.12625 5.27125 5.27125C6.12625 4.41608 7.13167 3.74042 8.2875 3.24425C9.44333 2.74808 10.6808 2.5 12 2.5C13.3192 2.5 14.5567 2.74808 15.7125 3.24425C16.8683 3.74042 17.8738 4.41608 18.7288 5.27125C19.5839 6.12625 20.2596 7.13167 20.7558 8.2875C21.2519 9.44333 21.5 10.6808 21.5 12C21.5 13.3192 21.2519 14.5567 20.7558 15.7125C20.2596 16.8683 19.5839 17.8738 18.7288 18.7288C17.8738 19.5839 16.8683 20.2596 15.7125 20.7558C14.5567 21.2519 13.3192 21.5 12 21.5ZM12 20C12.9025 20 13.7727 19.8548 14.6105 19.5645C15.4483 19.274 16.1923 18.8679 16.8422 18.3462C16.1923 17.8436 15.458 17.4519 14.6395 17.1712C13.8208 16.8904 12.941 16.75 12 16.75C11.059 16.75 10.1776 16.8888 9.35575 17.1663C8.53392 17.4439 7.80125 17.8372 7.15775 18.3462C7.80775 18.8679 8.55167 19.274 9.3895 19.5645C10.2273 19.8548 11.0975 20 12 20ZM12 11.25C12.4975 11.25 12.9135 11.0827 13.248 10.748C13.5827 10.4135 13.75 9.9975 13.75 9.5C13.75 9.0025 13.5827 8.5865 13.248 8.252C12.9135 7.91733 12.4975 7.75 12 7.75C11.5025 7.75 11.0865 7.91733 10.752 8.252C10.4173 8.5865 10.25 9.0025 10.25 9.5C10.25 9.9975 10.4173 10.4135 10.752 10.748C11.0865 11.0827 11.5025 11.25 12 11.25Z"/>
	</symbol>
</svg>