<svg width="0" height="0">
	<symbol xmlns="http://www.w3.org/2000/svg" id="ic_lupa" viewBox="0 0 24 24">
		<path fill-rule="evenodd" clip-rule="evenodd" d="M17.0005 10.9995C17.0005 11.7874 16.8453 12.5676 16.5438 13.2956C16.2423 14.0236 15.8003 14.685 15.2431 15.2421C14.686 15.7993 14.0246 16.2413 13.2966 16.5428C12.5687 16.8443 11.7884 16.9995 11.0005 16.9995C10.2126 16.9995 9.43236 16.8443 8.7044 16.5428C7.97645 16.2413 7.31501 15.7993 6.75786 15.2421C6.20071 14.685 5.75875 14.0236 5.45723 13.2956C5.1557 12.5676 5.0005 11.7874 5.0005 10.9995C5.0005 9.4082 5.63264 7.88208 6.75786 6.75686C7.88308 5.63164 9.4092 4.9995 11.0005 4.9995C12.5918 4.9995 14.1179 5.63164 15.2431 6.75686C16.3684 7.88208 17.0005 9.4082 17.0005 10.9995ZM15.9055 17.3195C14.298 18.5674 12.2753 19.1557 10.2493 18.9647C8.22322 18.7737 6.34611 17.8178 5.00005 16.2916C3.654 14.7653 2.94019 12.7834 3.00393 10.7494C3.06767 8.7154 3.90417 6.78213 5.34315 5.34315C6.78213 3.90417 8.71541 3.06767 10.7494 3.00393C12.7834 2.94019 14.7653 3.654 16.2916 5.00005C17.8178 6.34611 18.7737 8.22322 18.9647 10.2493C19.1557 12.2753 18.5674 14.298 17.3195 15.9055L20.7075 19.2925C20.803 19.3848 20.8792 19.4951 20.9316 19.6171C20.984 19.7391 21.0116 19.8703 21.0128 20.0031C21.0139 20.1359 20.9886 20.2676 20.9383 20.3905C20.888 20.5134 20.8138 20.625 20.7199 20.7189C20.626 20.8128 20.5144 20.887 20.3915 20.9373C20.2686 20.9876 20.1369 21.0129 20.0041 21.0118C19.8713 21.0106 19.7401 20.983 19.6181 20.9306C19.4961 20.8782 19.3857 20.802 19.2935 20.7065L15.9055 17.3195Z"/>
	</symbol>
	<symbol xmlns="http://www.w3.org/2000/svg" id="ic_delete" viewBox="0 0 32 32">
		<path d="M9.74367 27.3333C9.08078 27.3333 8.51333 27.0973 8.04133 26.6253C7.56933 26.1533 7.33333 25.5859 7.33333 24.923V8.00001H7C6.71667 8.00001 6.47922 7.90412 6.28767 7.71235C6.09589 7.52057 6 7.28301 6 6.99968C6 6.71612 6.09589 6.47868 6.28767 6.28735C6.47922 6.09579 6.71667 6.00001 7 6.00001H12C12 5.67357 12.115 5.39535 12.345 5.16535C12.5748 4.93557 12.8529 4.82068 13.1793 4.82068H18.8207C19.1471 4.82068 19.4252 4.93557 19.655 5.16535C19.885 5.39535 20 5.67357 20 6.00001H25C25.2833 6.00001 25.5208 6.0959 25.7123 6.28768C25.9041 6.47946 26 6.71701 26 7.00035C26 7.2839 25.9041 7.52135 25.7123 7.71268C25.5208 7.90423 25.2833 8.00001 25 8.00001H24.6667V24.923C24.6667 25.5859 24.4307 26.1533 23.9587 26.6253C23.4867 27.0973 22.9192 27.3333 22.2563 27.3333H9.74367ZM22.6667 8.00001H9.33333V24.923C9.33333 25.0428 9.37178 25.1411 9.44867 25.218C9.52556 25.2949 9.62389 25.3333 9.74367 25.3333H22.2563C22.3761 25.3333 22.4744 25.2949 22.5513 25.218C22.6282 25.1411 22.6667 25.0428 22.6667 24.923V8.00001ZM13.539 22.6667C13.8223 22.6667 14.0598 22.5709 14.2513 22.3793C14.4427 22.1876 14.5383 21.95 14.5383 21.6667V11.6667C14.5383 11.3833 14.4424 11.1458 14.2507 10.954C14.0591 10.7625 13.8216 10.6667 13.538 10.6667C13.2547 10.6667 13.0172 10.7625 12.8257 10.954C12.6343 11.1458 12.5387 11.3833 12.5387 11.6667V21.6667C12.5387 21.95 12.6344 22.1876 12.826 22.3793C13.0178 22.5709 13.2554 22.6667 13.539 22.6667ZM18.462 22.6667C18.7453 22.6667 18.9828 22.5709 19.1743 22.3793C19.3657 22.1876 19.4613 21.95 19.4613 21.6667V11.6667C19.4613 11.3833 19.3656 11.1458 19.174 10.954C18.9822 10.7625 18.7446 10.6667 18.461 10.6667C18.1777 10.6667 17.9402 10.7625 17.7487 10.954C17.5573 11.1458 17.4617 11.3833 17.4617 11.6667V21.6667C17.4617 21.95 17.5576 22.1876 17.7493 22.3793C17.9409 22.5709 18.1784 22.6667 18.462 22.6667Z"/>
	</symbol>
	<symbol xmlns="http://www.w3.org/2000/svg" id="ic_cat1" viewBox="0 0 24 24">
		<path d="M11.7298 10.207C10.8754 11.0623 10.4762 11.7531 10.4762 12.3809C10.4762 13.2211 11.1598 13.9048 12 13.9048C12.8401 13.9048 13.5238 13.2211 13.5238 12.3809C13.5238 11.7531 13.1245 11.0623 12.2702 10.207C12.2347 10.1715 12.1926 10.1433 12.1462 10.1241C12.0999 10.1049 12.0502 10.095 12 10.095C11.9498 10.095 11.9001 10.1049 11.8537 10.1241C11.8074 10.1433 11.7652 10.1715 11.7298 10.207ZM12 13.1428C11.798 13.1426 11.6044 13.0622 11.4615 12.9194C11.3187 12.7766 11.2383 12.5829 11.2381 12.3809C11.2381 12.0366 11.4941 11.5815 12 11.0268C12.5059 11.5815 12.7619 12.0366 12.7619 12.3809C12.7619 12.8015 12.4195 13.1428 12 13.1428Z"/>
		<path d="M18.0952 12.381C19.1457 12.381 20 11.5266 20 10.4762C20 9.42578 19.1467 8.57143 18.0952 8.57143H14.7937C14.0277 7.94667 13.0636 7.55556 12 7.55556C10.9364 7.55556 9.97232 7.94667 9.20635 8.57143H5.90476C5.27492 8.57143 4.7619 8.05841 4.7619 7.42857C4.7619 6.79873 5.27492 6.28571 5.90476 6.28571H18.0952C18.6002 6.28518 19.0844 6.08432 19.4415 5.72723C19.7986 5.37013 19.9995 4.88596 20 4.38095C20 4.27992 19.9599 4.18302 19.8884 4.11158C19.817 4.04014 19.7201 4 19.619 4C19.518 4 19.4211 4.04014 19.3497 4.11158C19.2782 4.18302 19.2381 4.27992 19.2381 4.38095C19.2381 5.01079 18.7251 5.52381 18.0952 5.52381H5.90476C4.85435 5.52381 4 6.37816 4 7.42857C4 8.47898 4.85333 9.33333 5.90476 9.33333H8.46679C7.96515 9.99722 7.6622 10.7898 7.59314 11.619H5.90476C4.85435 11.619 4 12.4734 4 13.5238C4 14.5742 4.85333 15.4286 5.90476 15.4286H9.20635C9.97232 16.0533 10.9364 16.4444 12 16.4444C13.0636 16.4444 14.0277 16.0533 14.7937 15.4286H18.0952C18.7251 15.4286 19.2381 15.9416 19.2381 16.5714C19.2381 17.2013 18.7251 17.7143 18.0952 17.7143H5.90476C5.39975 17.7148 4.91558 17.9157 4.55849 18.2728C4.20139 18.6299 4.00054 19.114 4 19.619C4 19.7201 4.04014 19.817 4.11158 19.8884C4.18302 19.9599 4.27992 20 4.38095 20C4.48199 20 4.57888 19.9599 4.65033 19.8884C4.72177 19.817 4.7619 19.7201 4.7619 19.619C4.7619 18.9892 5.27492 18.4762 5.90476 18.4762H18.0952C19.1457 18.4762 20 17.6218 20 16.5714C20 15.521 19.1467 14.6667 18.0952 14.6667H15.5332C16.0348 14.0028 16.3378 13.2102 16.4069 12.381H18.0952ZM19.2381 10.4762C19.2381 11.106 18.7251 11.619 18.0952 11.619H16.4058C16.3368 10.7898 16.0338 9.99722 15.5322 9.33333H18.0952C18.7251 9.33333 19.2381 9.84635 19.2381 10.4762ZM4.7619 13.5238C4.7619 12.894 5.27492 12.381 5.90476 12.381H7.59416C7.66832 13.2363 7.97613 14.0185 8.46781 14.6667H5.90476C5.27492 14.6667 4.7619 14.1537 4.7619 13.5238ZM12 15.6825C9.96927 15.6825 8.31746 14.0307 8.31746 12C8.31746 9.96927 9.96927 8.31746 12 8.31746C14.0307 8.31746 15.6825 9.96927 15.6825 12C15.6825 14.0307 14.0307 15.6825 12 15.6825Z"/>
	</symbol>
	<symbol xmlns="http://www.w3.org/2000/svg" id="ic_cat2" viewBox="0 0 24 24">
		<path d="M21 12C21.0061 10.2922 20.3664 8.63015 19.1797 7.27086C18.0768 6.00701 16.5632 5.06129 14.8356 4.55652V2.18164C14.8351 1.86839 14.692 1.5681 14.4378 1.3466C14.1836 1.12509 13.8389 1.00045 13.4794 1L10.5205 1C10.161 1.00045 9.81636 1.12509 9.56214 1.3466C9.30793 1.5681 9.16488 1.86839 9.16436 2.18164V4.55652C7.43669 5.06129 5.92312 6.00701 4.8202 7.27086C3.92953 8.29778 3.3426 9.4999 3.11116 10.7712C2.87973 12.0425 3.01091 13.3438 3.49313 14.5605V20.5293C3.49339 20.7287 3.5844 20.9198 3.74619 21.0608C3.90798 21.2017 4.12734 21.281 4.35615 21.2812H4.3808V22.6777C4.3808 22.7632 4.41977 22.8452 4.48913 22.9056C4.5585 22.966 4.65257 23 4.75067 23C4.84876 23 4.94283 22.966 5.0122 22.9056C5.08156 22.8452 5.12053 22.7632 5.12053 22.6777V21.2812H5.34245C5.57125 21.281 5.79061 21.2017 5.9524 21.0608C6.11419 20.9198 6.2052 20.7287 6.20546 20.5293V17.9941C7.82601 19.1867 9.87875 19.841 12 19.841C14.1212 19.841 16.1739 19.1867 17.7945 17.9941V20.5293C17.7947 20.7287 17.8858 20.9198 18.0475 21.0608C18.2093 21.2017 18.4287 21.281 18.6575 21.2812H18.6822V22.6777C18.6822 22.7632 18.7211 22.8452 18.7905 22.9056C18.8598 22.966 18.9539 23 19.052 23C19.1501 23 19.2442 22.966 19.3135 22.9056C19.3829 22.8452 19.4219 22.7632 19.4219 22.6777V21.2812H19.6438C19.8726 21.281 20.092 21.2017 20.2537 21.0608C20.4155 20.9198 20.5065 20.7287 20.5068 20.5293V14.5605C20.834 13.737 21.0007 12.8715 21 12ZM10.5205 11.0977H13.4794C13.8389 11.0972 14.1836 10.9726 14.4378 10.7511C14.692 10.5296 14.8351 10.2293 14.8356 9.91602V9.1675C15.4978 9.67056 15.9681 10.3378 16.1834 11.0799C16.3988 11.8221 16.349 12.6039 16.0407 13.3207C15.7324 14.0376 15.1803 14.6553 14.4583 15.0915C13.7362 15.5276 12.8786 15.7612 12 15.7612C11.1214 15.7612 10.2637 15.5276 9.54167 15.0915C8.81961 14.6553 8.26754 14.0376 7.95926 13.3207C7.65098 12.6039 7.60119 11.8221 7.81654 11.0799C8.03188 10.3378 8.50211 9.67056 9.16436 9.1675V9.91602C9.16488 10.2293 9.30793 10.5296 9.56214 10.7511C9.81636 10.9726 10.161 11.0972 10.5205 11.0977ZM9.16436 8.35625C8.26896 8.88493 7.5918 9.64991 7.2324 10.5388C6.873 11.4277 6.8503 12.3935 7.16765 13.2945C7.48499 14.1954 8.12564 14.9839 8.99545 15.5441C9.86526 16.1043 10.9184 16.4066 12 16.4066C13.0816 16.4066 14.1347 16.1043 15.0045 15.5441C15.8743 14.9839 16.5149 14.1954 16.8323 13.2945C17.1496 12.3935 17.1269 11.4277 16.7675 10.5388C16.4081 9.64991 15.731 8.88493 14.8356 8.35625V7.11016C16.0978 7.66584 17.1081 8.57602 17.7034 9.6937C18.2987 10.8114 18.4442 12.0713 18.1164 13.2699C17.7886 14.4685 17.0066 15.5358 15.8968 16.2994C14.787 17.0631 13.4141 17.4784 12 17.4784C10.5858 17.4784 9.21296 17.0631 8.10315 16.2994C6.99334 15.5358 6.21137 14.4685 5.88357 13.2699C5.55576 12.0713 5.70126 10.8114 6.29655 9.6937C6.89185 8.57602 7.90218 7.66584 9.16436 7.11016V8.35625ZM9.90408 2.18164C9.90434 2.03926 9.96937 1.90278 10.0849 1.8021C10.2005 1.70142 10.3571 1.64476 10.5205 1.64453H13.4794C13.6428 1.64476 13.7995 1.70142 13.915 1.8021C14.0306 1.90278 14.0956 2.03926 14.0959 2.18164V9.91602C14.0956 10.0584 14.0306 10.1949 13.915 10.2956C13.7995 10.3962 13.6428 10.4529 13.4794 10.4531H10.5205C10.3571 10.4529 10.2005 10.3962 10.0849 10.2956C9.96937 10.1949 9.90434 10.0584 9.90408 9.91602V2.18164ZM5.34245 20.6367H4.35615C4.32345 20.6367 4.29209 20.6254 4.26897 20.6053C4.24585 20.5851 4.23286 20.5578 4.23286 20.5293V15.9574C4.58031 16.4731 4.99393 16.9527 5.46573 17.387V20.5293C5.46573 20.5578 5.45274 20.5851 5.42962 20.6053C5.4065 20.6254 5.37514 20.6367 5.34245 20.6367ZM3.73971 12C3.73971 8.98531 5.94655 6.26539 9.16436 5.23887V6.39902C7.91842 6.8789 6.85913 7.66357 6.11505 8.6578C5.37097 9.65203 4.97409 10.8131 4.97258 12C4.97258 15.3765 8.12529 18.123 12 18.123C15.8746 18.123 19.0274 15.3765 19.0274 12C19.026 10.8129 18.6293 9.6517 17.8852 8.6573C17.1411 7.66291 16.0817 6.8781 14.8356 6.39816V5.23801C18.0534 6.26453 20.2602 8.98445 20.2602 11.9991C20.2602 15.9677 16.5547 19.1964 12 19.1964C7.44524 19.1964 3.73971 15.9686 3.73971 12ZM19.7671 20.5293C19.7671 20.5578 19.7541 20.5851 19.731 20.6053C19.7078 20.6254 19.6765 20.6367 19.6438 20.6367H18.6575C18.6248 20.6367 18.5934 20.6254 18.5703 20.6053C18.5472 20.5851 18.5342 20.5578 18.5342 20.5293V17.387C19.006 16.9527 19.4196 16.4731 19.7671 15.9574V20.5293Z"/>
		<path d="M11.2723 5.72278H12.0678L11.2723 6.52727C11.2463 6.55265 11.2255 6.58301 11.2113 6.61657C11.197 6.65013 11.1895 6.68622 11.1892 6.72273C11.1889 6.75925 11.1958 6.79546 11.2095 6.82925C11.2233 6.86304 11.2435 6.89373 11.2691 6.91954C11.2947 6.94535 11.3252 6.96576 11.3587 6.97957C11.3922 6.99338 11.428 7.00032 11.4642 6.99999C11.5004 6.99965 11.5362 6.99205 11.5694 6.97762C11.6027 6.96319 11.6327 6.94223 11.6579 6.91595L12.9199 5.64248C12.9581 5.60404 12.9842 5.55503 12.9947 5.50165C13.0053 5.44828 12.9999 5.39294 12.9793 5.34264C12.9587 5.29234 12.9237 5.24935 12.8789 5.21911C12.834 5.18887 12.7813 5.17274 12.7273 5.17277H11.9304L12.6379 4.45848C12.6844 4.40613 12.7092 4.33782 12.7074 4.26758C12.7055 4.19733 12.677 4.13047 12.6278 4.08073C12.5786 4.03099 12.5124 4.00215 12.4428 4.00012C12.3732 3.99808 12.3054 4.02302 12.2535 4.06981L11.0797 5.25454C11.0416 5.293 11.0157 5.34198 11.0052 5.39529C10.9947 5.44861 11.0001 5.50386 11.0207 5.55409C11.0413 5.60431 11.0762 5.64724 11.121 5.67746C11.1658 5.70768 11.2184 5.72384 11.2723 5.72388V5.72278Z"/>
	</symbol>
	<symbol xmlns="http://www.w3.org/2000/svg" id="ic_cat3" viewBox="0 0 24 24">
		<path d="M12 5.87097C8.62033 5.87097 5.87097 8.62033 5.87097 12C5.87097 15.3797 8.62033 18.129 12 18.129C15.3797 18.129 18.129 15.3797 18.129 12C18.129 8.62033 15.3797 5.87097 12 5.87097ZM12 17.4839C8.97613 17.4839 6.51613 15.0239 6.51613 12C6.51613 8.97613 8.97613 6.51613 12 6.51613C15.0239 6.51613 17.4839 8.97613 17.4839 12C17.4839 15.0239 15.0239 17.4839 12 17.4839Z"/>
		<path d="M12.0001 7.16125C9.33205 7.16125 7.16141 9.3319 7.16141 12C7.16141 14.668 9.33205 16.8387 12.0001 16.8387C14.6682 16.8387 16.8388 14.668 16.8388 12C16.8388 9.3319 14.6682 7.16125 12.0001 7.16125ZM12.0001 16.1935C9.68786 16.1935 7.80657 14.3122 7.80657 12C7.80657 9.68771 9.68786 7.80642 12.0001 7.80642C14.3124 7.80642 16.1937 9.68771 16.1937 12C16.1937 14.3122 14.3124 16.1935 12.0001 16.1935Z"/>
		<path d="M11.9999 4.58069C7.90863 4.58069 4.58057 7.90908 4.58057 12C4.58057 16.091 7.90863 19.4194 11.9999 19.4194C16.0912 19.4194 19.4193 16.091 19.4193 12C19.4193 7.90908 16.0912 4.58069 11.9999 4.58069ZM11.9999 18.7742C8.26476 18.7742 5.22573 15.7355 5.22573 12C5.22573 8.26456 8.26476 5.22585 11.9999 5.22585C15.7351 5.22585 18.7741 8.26456 18.7741 12C18.7741 15.7355 15.7351 18.7742 11.9999 18.7742Z"/>
		<path d="M12.0001 3.29028C7.1975 3.29028 3.29041 7.19738 3.29041 12C3.29041 16.8025 7.1975 20.7096 12.0001 20.7096C16.8027 20.7096 20.7098 16.8025 20.7098 12C20.7098 7.19738 16.8027 3.29028 12.0001 3.29028ZM12.0001 20.0645C7.55331 20.0645 3.93557 16.4467 3.93557 12C3.93557 7.55319 7.55331 3.93544 12.0001 3.93544C16.4469 3.93544 20.0646 7.55319 20.0646 12C20.0646 16.4467 16.4469 20.0645 12.0001 20.0645Z"/>
		<path d="M12 2C6.48581 2 2 6.48613 2 12V19.4194C2 20.0187 2.41258 20.5197 2.96774 20.6639V22H3.6129V20.6639C4.16806 20.5197 4.58065 20.0187 4.58065 19.4194V18.6968C6.41194 20.7239 9.05968 22 12 22C14.9403 22 17.5881 20.7239 19.4194 18.6968V19.4194C19.4194 20.0187 19.8319 20.5197 20.3871 20.6639V22H21.0323V20.6639C21.5874 20.5197 22 20.0187 22 19.4194V12C22 6.48613 17.5142 2 12 2ZM3.93548 19.4194C3.93548 19.7752 3.64613 20.0645 3.29032 20.0645C2.93452 20.0645 2.64516 19.7752 2.64516 19.4194V15.5294C2.96578 16.3756 3.39985 17.1744 3.93548 17.9039V19.4194ZM12 21.3548C6.84194 21.3548 2.64516 17.1584 2.64516 12C2.64516 6.84161 6.84194 2.64516 12 2.64516C17.1581 2.64516 21.3548 6.84161 21.3548 12C21.3548 17.1584 17.1581 21.3548 12 21.3548ZM21.3548 19.4194C21.3548 19.7752 21.0655 20.0645 20.7097 20.0645C20.3539 20.0645 20.0645 19.7752 20.0645 19.4194V17.9039C20.6002 17.1745 21.0343 16.3757 21.3548 15.5294V19.4194Z"/>
	</symbol>
	<symbol xmlns="http://www.w3.org/2000/svg" id="ic_cat4" viewBox="0 0 24 24">
		<path d="M20.4213 13.1184L18.9399 12.7399C18.7987 12.2403 18.6061 11.7573 18.3654 11.2991L19.1611 9.94222C19.249 9.79288 19.2854 9.61777 19.2646 9.4448C19.2438 9.27183 19.1669 9.11097 19.0463 8.98786L17.7265 7.63825C17.6062 7.5148 17.4489 7.43618 17.2798 7.41497C17.1107 7.39376 16.9394 7.43119 16.7936 7.52127L15.4847 8.3238C15.3138 8.22833 15.1393 8.13995 14.9614 8.05887C15.2774 7.83549 15.5674 7.57589 15.8258 7.28515C16.4756 6.43702 16.6056 3.55932 14.8689 1.40158C14.8157 1.33613 14.7448 1.28825 14.665 1.26399C14.5852 1.23972 14.5002 1.24015 14.4207 1.26522C14.3411 1.29029 14.2706 1.33888 14.2181 1.40486C14.1655 1.47084 14.1332 1.55126 14.1253 1.63597C14.0125 2.90191 13.7052 4.14173 13.2147 5.30976L10.9704 4.58292L12.1838 0.557317C12.2079 0.477838 12.2089 0.392926 12.1867 0.312872C12.1645 0.232818 12.1201 0.161061 12.0589 0.106297C11.9976 0.0515331 11.9221 0.0161141 11.8416 0.00433328C11.761 -0.00744755 11.6789 0.00491557 11.6051 0.039924C8.41607 1.55125 7.25858 5.04483 7.95635 6.56518C8.27222 7.25461 8.71049 7.5389 9.13656 8.01371C8.94729 8.09715 8.76054 8.18833 8.57884 8.28811L7.25143 7.47482C7.10547 7.38494 6.93427 7.34767 6.76517 7.36896C6.59607 7.39024 6.43882 7.46885 6.31854 7.59223L4.99827 8.94184C4.8781 9.06507 4.80163 9.22581 4.78098 9.39855C4.76033 9.57129 4.79669 9.74614 4.88429 9.89534L5.66913 11.2342C5.4238 11.6897 5.22641 12.1705 5.08029 12.6685L3.57875 13.0526C3.41333 13.0946 3.26645 13.1921 3.16155 13.3294C3.05665 13.4668 2.99977 13.6361 3 13.8104V15.7187C2.99986 15.8929 3.05678 16.0621 3.16168 16.1994C3.26657 16.3367 3.4134 16.4341 3.57875 16.4761L5.0601 16.855C5.20115 17.3546 5.3936 17.8376 5.63422 18.2958L4.83844 19.6531C4.75068 19.8024 4.71434 19.9775 4.73523 20.1504C4.75612 20.3233 4.83303 20.4841 4.95369 20.6071L6.27311 21.9567C6.39345 22.08 6.55072 22.1585 6.71982 22.1797C6.88892 22.2009 7.06009 22.1636 7.206 22.0736L8.51533 21.2711C8.96055 21.5221 9.43062 21.7239 9.91761 21.8732L10.2936 23.4086C10.3348 23.5777 10.4301 23.7278 10.5645 23.835C10.6988 23.9422 10.8643 24.0003 11.0347 24H12.9009C13.0713 24.0002 13.2369 23.942 13.3712 23.8347C13.5055 23.7275 13.6009 23.5773 13.642 23.4082L14.0122 21.8943C14.5007 21.7499 14.9729 21.5529 15.4207 21.3064L16.7486 22.1205C16.8946 22.2101 17.0657 22.2471 17.2347 22.2258C17.4036 22.2044 17.5608 22.1259 17.681 22.0027L19.0009 20.6531C19.1215 20.5301 19.1984 20.3693 19.2192 20.1964C19.2401 20.0235 19.2036 19.8484 19.1157 19.6991L18.3309 18.3607C18.5762 17.9052 18.7736 17.4244 18.9197 16.9264L20.4213 16.5423C20.5866 16.5003 20.7334 16.4029 20.8383 16.2657C20.9432 16.1284 21.0001 15.9591 21 15.7849V13.8762C21.0001 13.702 20.9432 13.5328 20.8383 13.3955C20.7334 13.2582 20.5866 13.1608 20.4213 13.1188V13.1184ZM8.71764 6.20047C8.13258 4.92441 9.48187 2.43464 11.0696 1.33448L10.0434 4.73775C10.0107 4.84623 10.0212 4.96353 10.0728 5.06407C10.1243 5.16462 10.2126 5.24026 10.3184 5.2745L13.3182 6.24649C13.4155 6.27827 13.5209 6.27261 13.6144 6.23055C13.708 6.1885 13.7833 6.11295 13.8262 6.01812C14.285 5.01355 14.6156 3.95288 14.81 2.86215C15.6748 4.55884 15.4636 6.3639 15.1633 6.75571C14.7638 7.27741 13.0212 8.01629 13.0212 10.3177V18.4308C12.2419 18.6611 11.41 18.6216 10.6549 18.3186V9.71212C10.6549 7.66491 9.15969 7.16343 8.71764 6.20047ZM13.8624 11.5357C14.4215 11.867 14.8856 12.3428 15.2082 12.9154C15.5309 13.4879 15.7007 14.1371 15.7007 14.7979C15.7007 15.4587 15.5309 16.1079 15.2082 16.6804C14.8856 17.2529 14.4215 17.7287 13.8624 18.0601V11.5357ZM9.81372 17.8416C9.66212 17.7292 9.51899 17.6052 9.38555 17.4709C9.00502 17.088 8.71082 16.6248 8.5235 16.1136C8.33619 15.6024 8.26026 15.0555 8.30103 14.5112C8.34181 13.9669 8.4983 13.4383 8.75957 12.9622C9.02084 12.4862 9.3806 12.0742 9.81372 11.755V17.8416ZM20.1588 15.7226L18.4785 16.1527C18.4054 16.1713 18.3385 16.2097 18.2849 16.2639C18.2314 16.3181 18.193 16.386 18.174 16.4606C18.0222 17.0524 17.7892 17.6193 17.4821 18.1444C17.443 18.2112 17.4223 18.2876 17.4223 18.3654C17.4223 18.4433 17.443 18.5197 17.4821 18.5865L18.3633 20.0888L17.1288 21.3507L15.6441 20.4406C15.5794 20.4011 15.5056 20.3801 15.4303 20.3796C15.355 20.3792 15.281 20.3993 15.2159 20.438C14.699 20.7465 14.1421 20.9787 13.5617 21.1279C13.4878 21.1468 13.4203 21.1859 13.3665 21.241C13.3126 21.296 13.2744 21.365 13.2559 21.4406L12.8404 23.1398H11.0949L10.6743 21.4216C10.6559 21.347 10.6182 21.2787 10.5653 21.2239C10.5123 21.1691 10.4459 21.1299 10.3731 21.1103C9.79432 20.9553 9.23992 20.7173 8.72647 20.4032C8.66111 20.3632 8.58637 20.3422 8.51022 20.3422C8.43408 20.3423 8.35938 20.3635 8.29409 20.4036L6.82494 21.3047L5.5909 20.0424L6.48089 18.5241C6.51975 18.4581 6.54053 18.3825 6.54105 18.3054C6.54156 18.2283 6.5218 18.1525 6.48383 18.0859C6.18213 17.5574 5.955 16.9879 5.80919 16.3944C5.79076 16.3188 5.75257 16.2497 5.69871 16.1947C5.64484 16.1396 5.57733 16.1005 5.50341 16.0817L3.8412 15.6568V13.8719L5.52108 13.4418C5.59422 13.4233 5.66113 13.3849 5.71478 13.3308C5.76844 13.2767 5.80686 13.2088 5.82601 13.1343C5.97769 12.5425 6.21049 11.9756 6.51748 11.4505C6.5567 11.3837 6.57742 11.3072 6.57742 11.2292C6.57742 11.1513 6.5567 11.0748 6.51748 11.008L5.63632 9.50568L6.87078 8.24424L8.3555 9.1543C8.42011 9.19411 8.49402 9.21536 8.56945 9.21581C8.64488 9.21627 8.71903 9.19591 8.78409 9.15688C9.0542 8.99869 9.33536 8.86112 9.62529 8.74529C9.85578 9.24333 9.81372 9.67126 9.81372 10.7331C8.91137 11.237 8.20208 12.0379 7.80101 13.0059C7.39994 13.9739 7.33065 15.0521 7.6044 16.0654C7.87815 17.0787 8.47885 17.9677 9.30897 18.5879C10.1391 19.2081 11.1499 19.5232 12.1772 19.482C13.2045 19.4407 14.188 19.0456 14.968 18.3607C15.748 17.6758 16.2787 16.7414 16.4739 15.7093C16.669 14.6771 16.5173 13.6078 16.0432 12.6749C15.5692 11.7421 14.8006 11.0005 13.8624 10.5706C13.8148 9.92031 13.9831 9.27264 14.3402 8.73239C14.6631 8.85943 14.9754 9.01305 15.274 9.19172C15.3392 9.23156 15.4138 9.25255 15.4898 9.25248C15.5658 9.2524 15.6403 9.23126 15.7055 9.19129L17.1746 8.29069L18.4087 9.55256L17.5187 11.0703C17.4799 11.1364 17.4592 11.2118 17.4587 11.2888C17.4581 11.3659 17.4779 11.4416 17.5157 11.5082C17.8177 12.0369 18.045 12.6067 18.1908 13.2005C18.2092 13.2761 18.2474 13.3452 18.3013 13.4002C18.3552 13.4553 18.4227 13.4944 18.4966 13.5132L20.1588 13.9381V15.7226Z"/>
	</symbol>
	<symbol xmlns="http://www.w3.org/2000/svg" id="ic_cat5" viewBox="0 0 24 24">
		<path d="M19.2 3H4.8C4.32276 3.00048 3.8652 3.19027 3.52773 3.52773C3.19027 3.8652 3.00048 4.32276 3 4.8L3 19.2C3.00048 19.6772 3.19027 20.1348 3.52773 20.4723C3.8652 20.8097 4.32276 20.9995 4.8 21H19.2C19.6772 20.9995 20.1348 20.8097 20.4723 20.4723C20.8097 20.1348 20.9995 19.6772 21 19.2V4.8C20.9995 4.32276 20.8097 3.8652 20.4723 3.52773C20.1348 3.19027 19.6772 3.00048 19.2 3ZM20.4 19.2C20.4 19.5183 20.2736 19.8235 20.0485 20.0485C19.8235 20.2736 19.5183 20.4 19.2 20.4H4.8C4.48174 20.4 4.17652 20.2736 3.95147 20.0485C3.72643 19.8235 3.6 19.5183 3.6 19.2V4.8C3.6 4.48174 3.72643 4.17652 3.95147 3.95147C4.17652 3.72643 4.48174 3.6 4.8 3.6H19.2C19.5183 3.6 19.8235 3.72643 20.0485 3.95147C20.2736 4.17652 20.4 4.48174 20.4 4.8V19.2Z"/>
		<path d="M18.9001 4.20093H5.10013C4.86144 4.20093 4.63252 4.29575 4.46374 4.46453C4.29496 4.63331 4.20013 4.86223 4.20013 5.10093V12.3009C4.20013 12.5396 4.29496 12.7685 4.46374 12.9373C4.63252 13.1061 4.86144 13.2009 5.10013 13.2009H18.9001C19.1388 13.2009 19.3677 13.1061 19.5365 12.9373C19.7053 12.7685 19.8001 12.5396 19.8001 12.3009V5.10093C19.8001 4.86223 19.7053 4.63331 19.5365 4.46453C19.3677 4.29575 19.1388 4.20093 18.9001 4.20093ZM19.2001 12.3009C19.2001 12.3805 19.1685 12.4568 19.1123 12.5131C19.056 12.5693 18.9797 12.6009 18.9001 12.6009H5.10013C5.02057 12.6009 4.94426 12.5693 4.888 12.5131C4.83174 12.4568 4.80013 12.3805 4.80013 12.3009V5.10093C4.80013 5.02136 4.83174 4.94506 4.888 4.8888C4.94426 4.83253 5.02057 4.80093 5.10013 4.80093H18.9001C18.9797 4.80093 19.056 4.83253 19.1123 4.8888C19.1685 4.94506 19.2001 5.02136 19.2001 5.10093V12.3009ZM12.0001 15.0009C11.5255 15.0009 11.0614 15.1417 10.6668 15.4054C10.2721 15.6691 9.96447 16.0439 9.78282 16.4825C9.60117 16.921 9.55365 17.4036 9.64625 17.8691C9.73885 18.3347 9.96743 18.7623 10.3031 19.098C10.6387 19.4336 11.0664 19.6622 11.5319 19.7548C11.9975 19.8474 12.48 19.7999 12.9186 19.6182C13.3571 19.4366 13.7319 19.129 13.9957 18.7343C14.2594 18.3396 14.4001 17.8756 14.4001 17.4009C14.3994 16.7646 14.1463 16.1546 13.6964 15.7047C13.2465 15.2547 12.6364 15.0016 12.0001 15.0009ZM12.0001 19.2009C11.5506 19.1983 11.1184 19.0276 10.7883 18.7224C10.4583 18.4172 10.2545 17.9995 10.2169 17.5516C10.1793 17.1036 10.3106 16.6578 10.5851 16.3018C10.8596 15.9458 11.2573 15.7055 11.7001 15.6279V16.2009C11.7001 16.2805 11.7317 16.3568 11.788 16.4131C11.8443 16.4693 11.9206 16.5009 12.0001 16.5009C12.0797 16.5009 12.156 16.4693 12.2123 16.4131C12.2685 16.3568 12.3001 16.2805 12.3001 16.2009V15.6279C12.7429 15.7055 13.1407 15.9458 13.4152 16.3018C13.6897 16.6578 13.821 17.1036 13.7834 17.5516C13.7458 17.9995 13.5419 18.4172 13.2119 18.7224C12.8819 19.0276 12.4496 19.1983 12.0001 19.2009Z"/>
		<path d="M11.9999 14.4C12.1655 14.4 12.2999 14.2657 12.2999 14.1C12.2999 13.9344 12.1655 13.8 11.9999 13.8C11.8342 13.8 11.6999 13.9344 11.6999 14.1C11.6999 14.2657 11.8342 14.4 11.9999 14.4Z"/>
		<path d="M14.1213 14.8555C14.0794 14.8974 14.0508 14.9509 14.0392 15.0091C14.0276 15.0673 14.0335 15.1276 14.0562 15.1824C14.0789 15.2372 14.1174 15.2841 14.1667 15.3171C14.2161 15.35 14.2741 15.3676 14.3334 15.3676C14.3928 15.3676 14.4508 15.35 14.5001 15.3171C14.5494 15.2841 14.5879 15.2372 14.6106 15.1824C14.6333 15.1276 14.6392 15.0673 14.6276 15.0091C14.6161 14.9509 14.5875 14.8974 14.5455 14.8555C14.4893 14.7992 14.413 14.7676 14.3334 14.7676C14.2539 14.7676 14.1776 14.7992 14.1213 14.8555ZM9.87872 15.2797C9.92068 15.2377 9.94926 15.1843 9.96085 15.1261C9.97243 15.0679 9.96649 15.0076 9.94379 14.9527C9.92109 14.8979 9.88264 14.851 9.8333 14.8181C9.78396 14.7851 9.72596 14.7675 9.66662 14.7675C9.60728 14.7675 9.54927 14.7851 9.49994 14.8181C9.4506 14.851 9.41215 14.8979 9.38945 14.9527C9.36674 15.0076 9.36081 15.0679 9.37239 15.1261C9.38397 15.1843 9.41255 15.2377 9.45452 15.2797C9.51078 15.3359 9.58707 15.3675 9.66662 15.3675C9.74617 15.3675 9.82246 15.3359 9.87872 15.2797ZM11.1 6.90098H9.60002C9.52045 6.90098 9.44415 6.93258 9.38789 6.98884C9.33162 7.04511 9.30002 7.12141 9.30002 7.20098C9.30002 7.28054 9.33162 7.35685 9.38789 7.41311C9.44415 7.46937 9.52045 7.50098 9.60002 7.50098H11.1V8.70098H9.90002C9.74089 8.70098 9.58828 8.76419 9.47575 8.87671C9.36323 8.98923 9.30002 9.14185 9.30002 9.30098V10.501C9.30002 10.6601 9.36323 10.8127 9.47575 10.9252C9.58828 11.0378 9.74089 11.101 9.90002 11.101H11.4C11.4796 11.101 11.5559 11.0694 11.6122 11.0131C11.6684 10.9568 11.7 10.8805 11.7 10.801C11.7 10.7214 11.6684 10.6451 11.6122 10.5888C11.5559 10.5326 11.4796 10.501 11.4 10.501H9.90002V9.30098H11.1C11.2591 9.30098 11.4118 9.23776 11.5243 9.12524C11.6368 9.01272 11.7 8.86011 11.7 8.70098V7.50098C11.7 7.34185 11.6368 7.18923 11.5243 7.07671C11.4118 6.96419 11.2591 6.90098 11.1 6.90098ZM14.1 6.90098H12.9C12.7409 6.90098 12.5883 6.96419 12.4758 7.07671C12.3632 7.18923 12.3 7.34185 12.3 7.50098V10.501C12.3 10.6601 12.3632 10.8127 12.4758 10.9252C12.5883 11.0378 12.7409 11.101 12.9 11.101H14.1C14.2591 11.101 14.4118 11.0378 14.5243 10.9252C14.6368 10.8127 14.7 10.6601 14.7 10.501V7.50098C14.7 7.34185 14.6368 7.18923 14.5243 7.07671C14.4118 6.96419 14.2591 6.90098 14.1 6.90098ZM12.9 10.501V7.50098H14.1V10.501H12.9ZM15.9 5.70098C15.722 5.70098 15.548 5.75376 15.4 5.85265C15.252 5.95155 15.1366 6.09211 15.0685 6.25656C15.0004 6.42102 14.9826 6.60197 15.0173 6.77656C15.052 6.95114 15.1378 7.11151 15.2636 7.23737C15.3895 7.36324 15.5499 7.44896 15.7244 7.48368C15.899 7.51841 16.08 7.50059 16.2444 7.43247C16.4089 7.36435 16.5494 7.24899 16.6483 7.10099C16.7472 6.95299 16.8 6.77898 16.8 6.60098C16.8 6.36228 16.7052 6.13336 16.5364 5.96458C16.3676 5.7958 16.1387 5.70098 15.9 5.70098ZM15.9 6.90098C15.8407 6.90098 15.7827 6.88338 15.7333 6.85042C15.684 6.81745 15.6456 6.7706 15.6229 6.71578C15.6001 6.66096 15.5942 6.60064 15.6058 6.54245C15.6174 6.48426 15.6459 6.4308 15.6879 6.38884C15.7298 6.34689 15.7833 6.31832 15.8415 6.30674C15.8997 6.29517 15.96 6.30111 16.0148 6.32381C16.0696 6.34652 16.1165 6.38497 16.1495 6.43431C16.1824 6.48364 16.2 6.54164 16.2 6.60098C16.2 6.68054 16.1684 6.75685 16.1121 6.81311C16.0559 6.86937 15.9796 6.90098 15.9 6.90098ZM5.70002 6.30098C5.77958 6.30096 5.85587 6.26934 5.91212 6.21308L6.21212 5.91308C6.26677 5.8565 6.297 5.78072 6.29632 5.70206C6.29564 5.6234 6.26409 5.54815 6.20846 5.49253C6.15284 5.43691 6.0776 5.40536 5.99894 5.40467C5.92028 5.40399 5.8445 5.43423 5.78792 5.48888L5.48792 5.78888C5.44598 5.83083 5.41741 5.88428 5.40584 5.94247C5.39427 6.00065 5.40021 6.06096 5.42291 6.11577C5.44562 6.17058 5.48406 6.21743 5.53338 6.2504C5.5827 6.28336 5.64069 6.30096 5.70002 6.30098ZM7.28792 5.48888L5.48792 7.28888C5.45927 7.31655 5.43641 7.34965 5.42069 7.38626C5.40497 7.42286 5.39669 7.46222 5.39634 7.50206C5.396 7.54189 5.40359 7.58139 5.41867 7.61826C5.43376 7.65513 5.45603 7.68863 5.4842 7.71679C5.51237 7.74496 5.54586 7.76724 5.58273 7.78232C5.6196 7.79741 5.6591 7.805 5.69894 7.80465C5.73877 7.80431 5.77814 7.79603 5.81474 7.78031C5.85134 7.76458 5.88444 7.74173 5.91212 7.71308L7.71212 5.91308C7.76677 5.8565 7.797 5.78072 7.79632 5.70206C7.79564 5.6234 7.76409 5.54815 7.70846 5.49253C7.65284 5.43691 7.5776 5.40536 7.49894 5.40467C7.42028 5.40399 7.3445 5.43423 7.28792 5.48888Z"/>
	</symbol>
	<symbol xmlns="http://www.w3.org/2000/svg" id="favorite" viewBox="0 0 24 24">
		<path d="M11.9905 19.7095C11.7763 19.7095 11.5612 19.6711 11.3453 19.5943C11.1293 19.5173 10.9392 19.3968 10.775 19.2327L9.3385 17.927C7.5655 16.3103 5.9825 14.7222 4.5895 13.1625C3.1965 11.6028 2.5 9.932 2.5 8.15C2.5 6.73083 2.9785 5.54267 3.9355 4.5855C4.89267 3.6285 6.08083 3.15 7.5 3.15C8.30633 3.15 9.10283 3.33592 9.8895 3.70775C10.676 4.07958 11.3795 4.68342 12 5.51925C12.6205 4.68342 13.324 4.07958 14.1105 3.70775C14.8972 3.33592 15.6937 3.15 16.5 3.15C17.9192 3.15 19.1073 3.6285 20.0645 4.5855C21.0215 5.54267 21.5 6.73083 21.5 8.15C21.5 9.95133 20.7917 11.6408 19.375 13.2183C17.9583 14.7958 16.3788 16.3704 14.6365 17.9423L13.2153 19.2327C13.0512 19.3968 12.8597 19.5173 12.6405 19.5943C12.4212 19.6711 12.2045 19.7095 11.9905 19.7095ZM11.2808 7.0385C10.7398 6.21417 10.1702 5.61 9.572 5.226C8.974 4.842 8.28333 4.65 7.5 4.65C6.5 4.65 5.66667 4.98333 5 5.65C4.33333 6.31667 4 7.15 4 8.15C4 8.9525 4.25867 9.79158 4.776 10.6673C5.29333 11.5429 5.94267 12.4134 6.724 13.2788C7.50533 14.1443 8.35183 14.9898 9.2635 15.8153C10.175 16.6409 11.0198 17.4083 11.798 18.1173C11.8557 18.1686 11.923 18.1943 12 18.1943C12.077 18.1943 12.1443 18.1686 12.202 18.1173C12.9802 17.4083 13.825 16.6409 14.7365 15.8153C15.6482 14.9898 16.4947 14.1443 17.276 13.2788C18.0573 12.4134 18.7067 11.5429 19.224 10.6673C19.7413 9.79158 20 8.9525 20 8.15C20 7.15 19.6667 6.31667 19 5.65C18.3333 4.98333 17.5 4.65 16.5 4.65C15.7167 4.65 15.026 4.842 14.428 5.226C13.8298 5.61 13.2603 6.21417 12.7192 7.0385C12.6346 7.16667 12.5282 7.26284 12.4 7.327C12.2718 7.391 12.1385 7.423 12 7.423C11.8615 7.423 11.7282 7.391 11.6 7.327C11.4718 7.26284 11.3654 7.16667 11.2808 7.0385Z"/>
	</symbol>
	<symbol xmlns="http://www.w3.org/2000/svg" id="compare" viewBox="0 0 24 24">
		<path d="M17.5 19.75C17.5 19.9625 17.4281 20.1406 17.2843 20.2843C17.1404 20.4281 16.9623 20.5 16.7498 20.5C16.5371 20.5 16.359 20.4281 16.2155 20.2843C16.0718 20.1406 16 19.9625 16 19.75L16 15.875C16 15.6625 16.0719 15.4844 16.2158 15.3408C16.3596 15.1969 16.5378 15.125 16.7503 15.125C16.9629 15.125 17.141 15.1969 17.2845 15.3408C17.4282 15.4844 17.5 15.6625 17.5 15.875L17.5 19.75ZM12.75 19.75C12.75 19.9625 12.6781 20.1406 12.5343 20.2843C12.3904 20.4281 12.2123 20.5 11.9998 20.5C11.7871 20.5 11.609 20.4281 11.4655 20.2843C11.3218 20.1406 11.25 19.9625 11.25 19.75L11.25 10.0673C11.25 9.85475 11.3219 9.67667 11.4658 9.533C11.6096 9.38917 11.7878 9.31725 12.0003 9.31725C12.2129 9.31725 12.391 9.38917 12.5345 9.533C12.6782 9.67667 12.75 9.85475 12.75 10.0673L12.75 19.75ZM8 19.75C8 19.9625 7.92808 20.1406 7.78425 20.2843C7.64042 20.4281 7.46225 20.5 7.24975 20.5C7.03708 20.5 6.859 20.4281 6.7155 20.2843C6.57183 20.1406 6.5 19.9625 6.5 19.75L6.5 4.25C6.5 4.0375 6.57192 3.85942 6.71575 3.71575C6.85958 3.57192 7.03775 3.5 7.25025 3.5C7.46292 3.5 7.641 3.57192 7.7845 3.71575C7.92817 3.85942 8 4.0375 8 4.25L8 19.75Z"/>
	</symbol>
	<symbol xmlns="http://www.w3.org/2000/svg" id="orders" viewBox="0 0 24 24">
		<path d="M4.5 17.6922V7.6L2.95 4.22125C2.86534 4.03525 2.86025 3.84358 2.93475 3.64625C3.00909 3.44875 3.13917 3.30775 3.325 3.22325C3.51084 3.13858 3.7025 3.13083 3.9 3.2C4.0975 3.26933 4.2385 3.39692 4.323 3.58275L6.14225 7.55H17.8578L19.677 3.58275C19.7615 3.39692 19.9025 3.26675 20.1 3.19225C20.2975 3.11792 20.4892 3.12825 20.675 3.22325C20.8608 3.30775 20.9909 3.44875 21.0653 3.64625C21.1398 3.84358 21.1347 4.03525 21.05 4.22125L19.5 7.6V17.6922C19.5 18.1909 19.3234 18.6169 18.9703 18.9702C18.6169 19.3234 18.1909 19.5 17.6923 19.5H6.30775C5.80909 19.5 5.38309 19.3234 5.02975 18.9702C4.67659 18.6169 4.5 18.1909 4.5 17.6922ZM10 12.75H14C14.2128 12.75 14.391 12.6782 14.5345 12.5345C14.6782 12.391 14.75 12.2128 14.75 12C14.75 11.7872 14.6782 11.609 14.5345 11.4655C14.391 11.3218 14.2128 11.25 14 11.25H10C9.78717 11.25 9.609 11.3218 9.4655 11.4655C9.32184 11.609 9.25 11.7872 9.25 12C9.25 12.2128 9.32184 12.391 9.4655 12.5345C9.609 12.6782 9.78717 12.75 10 12.75ZM6.30775 18H17.6923C17.7821 18 17.8558 17.9712 17.9135 17.9135C17.9712 17.8558 18 17.7821 18 17.6922V9.05H6V17.6922C6 17.7821 6.02884 17.8558 6.0865 17.9135C6.14417 17.9712 6.21792 18 6.30775 18Z"/>
	</symbol>
	<symbol xmlns="http://www.w3.org/2000/svg" id="cart" viewBox="0 0 24 24">
		<path d="M7.15375 21.5578C6.66792 21.5578 6.25483 21.3875 5.9145 21.047C5.57417 20.7067 5.404 20.2936 5.404 19.8078C5.404 19.3218 5.57417 18.9086 5.9145 18.5683C6.25483 18.2279 6.66792 18.0577 7.15375 18.0577C7.63975 18.0577 8.05292 18.2279 8.39325 18.5683C8.73358 18.9086 8.90375 19.3218 8.90375 19.8078C8.90375 20.2936 8.73358 20.7067 8.39325 21.047C8.05292 21.3875 7.63975 21.5578 7.15375 21.5578ZM16.8463 21.5578C16.3603 21.5578 15.9471 21.3875 15.6068 21.047C15.2664 20.7067 15.0963 20.2936 15.0963 19.8078C15.0963 19.3218 15.2664 18.9086 15.6068 18.5683C15.9471 18.2279 16.3603 18.0577 16.8463 18.0577C17.3321 18.0577 17.7452 18.2279 18.0855 18.5683C18.4258 18.9086 18.596 19.3218 18.596 19.8078C18.596 20.2936 18.4258 20.7067 18.0855 21.047C17.7452 21.3875 17.3321 21.5578 16.8463 21.5578ZM6.01525 5.75L8.55 11.0577H15.3673C15.4249 11.0577 15.4763 11.0433 15.5213 11.0145C15.5661 10.9857 15.6045 10.9456 15.6365 10.8943L18.3193 6.01925C18.3578 5.94875 18.3609 5.88625 18.3288 5.83175C18.2968 5.77725 18.2423 5.75 18.1653 5.75H6.01525ZM5.29625 4.25H19.1808C19.5898 4.25 19.899 4.42408 20.1085 4.77225C20.3182 5.12025 20.3282 5.47567 20.1385 5.8385L16.9345 11.6423C16.7705 11.9307 16.5536 12.1554 16.2838 12.3162C16.0138 12.4773 15.7179 12.5577 15.3963 12.5577H8.1L6.94225 14.673C6.89092 14.75 6.88933 14.8333 6.9375 14.923C6.9855 15.0128 7.05758 15.0577 7.15375 15.0577H17.8463C18.0589 15.0577 18.2371 15.1295 18.3808 15.273C18.5243 15.4167 18.596 15.5949 18.596 15.8077C18.596 16.0206 18.5243 16.1988 18.3808 16.3422C18.2371 16.4859 18.0589 16.5577 17.8463 16.5577H7.15375C6.48708 16.5577 5.98617 16.2703 5.651 15.6953C5.31567 15.1202 5.30383 14.5462 5.6155 13.973L7.04225 11.4078L3.404 3.75H2.25C2.03717 3.75 1.859 3.67817 1.7155 3.5345C1.57183 3.391 1.5 3.21283 1.5 3C1.5 2.78717 1.57183 2.609 1.7155 2.4655C1.859 2.32183 2.03717 2.25 2.25 2.25H3.77875C3.94942 2.25 4.10842 2.29517 4.25575 2.3855C4.40325 2.476 4.51542 2.60325 4.59225 2.76725L5.29625 4.25Z"/>
	</symbol>
	<symbol xmlns="http://www.w3.org/2000/svg" id="user" viewBox="0 0 24 24">
		<path d="M6.023 17.2923C6.873 16.6616 7.799 16.1635 8.801 15.798C9.80283 15.4327 10.8692 15.25 12 15.25C13.1308 15.25 14.1972 15.4327 15.199 15.798C16.201 16.1635 17.127 16.6616 17.977 17.2923C18.5987 16.6089 19.0912 15.8179 19.4548 14.9192C19.8183 14.0206 20 13.0475 20 12C20 9.78333 19.2208 7.89583 17.6625 6.3375C16.1042 4.77917 14.2167 4 12 4C9.78333 4 7.89583 4.77917 6.3375 6.3375C4.77917 7.89583 4 9.78333 4 12C4 13.0475 4.18175 14.0206 4.54525 14.9192C4.90875 15.8179 5.40133 16.6089 6.023 17.2923ZM12.0003 12.75C11.0873 12.75 10.3173 12.4367 9.6905 11.81C9.0635 11.1832 8.75 10.4133 8.75 9.50025C8.75 8.58725 9.06333 7.81733 9.69 7.1905C10.3168 6.5635 11.0868 6.25 11.9998 6.25C12.9128 6.25 13.6827 6.56333 14.3095 7.19C14.9365 7.81683 15.25 8.58675 15.25 9.49975C15.25 10.4127 14.9367 11.1827 14.31 11.8095C13.6832 12.4365 12.9132 12.75 12.0003 12.75ZM12 21.5C10.6808 21.5 9.44333 21.2519 8.2875 20.7558C7.13167 20.2596 6.12625 19.5839 5.27125 18.7288C4.41608 17.8738 3.74042 16.8683 3.24425 15.7125C2.74808 14.5567 2.5 13.3192 2.5 12C2.5 10.6808 2.74808 9.44333 3.24425 8.2875C3.74042 7.13167 4.41608 6.12625 5.27125 5.27125C6.12625 4.41608 7.13167 3.74042 8.2875 3.24425C9.44333 2.74808 10.6808 2.5 12 2.5C13.3192 2.5 14.5567 2.74808 15.7125 3.24425C16.8683 3.74042 17.8738 4.41608 18.7288 5.27125C19.5839 6.12625 20.2596 7.13167 20.7558 8.2875C21.2519 9.44333 21.5 10.6808 21.5 12C21.5 13.3192 21.2519 14.5567 20.7558 15.7125C20.2596 16.8683 19.5839 17.8738 18.7288 18.7288C17.8738 19.5839 16.8683 20.2596 15.7125 20.7558C14.5567 21.2519 13.3192 21.5 12 21.5ZM12 20C12.9025 20 13.7727 19.8548 14.6105 19.5645C15.4483 19.274 16.1923 18.8679 16.8422 18.3462C16.1923 17.8436 15.458 17.4519 14.6395 17.1712C13.8208 16.8904 12.941 16.75 12 16.75C11.059 16.75 10.1776 16.8888 9.35575 17.1663C8.53392 17.4439 7.80125 17.8372 7.15775 18.3462C7.80775 18.8679 8.55167 19.274 9.3895 19.5645C10.2273 19.8548 11.0975 20 12 20ZM12 11.25C12.4975 11.25 12.9135 11.0827 13.248 10.748C13.5827 10.4135 13.75 9.9975 13.75 9.5C13.75 9.0025 13.5827 8.5865 13.248 8.252C12.9135 7.91733 12.4975 7.75 12 7.75C11.5025 7.75 11.0865 7.91733 10.752 8.252C10.4173 8.5865 10.25 9.0025 10.25 9.5C10.25 9.9975 10.4173 10.4135 10.752 10.748C11.0865 11.0827 11.5025 11.25 12 11.25Z"/>
	</symbol>

	<symbol xmlns="http://www.w3.org/2000/svg" id="ic_soc1" viewBox="0 0 32 32">
		<path d="M5.95884 16.7826C7.82924 15.7523 9.91711 14.8924 11.8679 14.0282C15.224 12.6126 18.5935 11.2215 21.997 9.92642C22.6592 9.70577 23.849 9.49001 23.9656 10.4713C23.9017 11.8604 23.6389 13.2413 23.4587 14.6222C23.0012 17.659 22.4724 20.6854 21.9567 23.7122C21.779 24.7205 20.516 25.2424 19.7079 24.5972C17.7658 23.2853 15.8087 21.9862 13.8914 20.644C13.2633 20.0058 13.8457 19.0893 14.4066 18.6336C16.0062 17.0572 17.7026 15.7178 19.2186 14.06C19.6276 13.0725 18.4193 13.9047 18.0207 14.1597C15.8309 15.6688 13.6946 17.27 11.3858 18.5962C10.2065 19.2454 8.83194 18.6907 7.65314 18.3284C6.59622 17.8908 5.0474 17.4499 5.95874 16.7827L5.95884 16.7826Z" stroke="none"/>
	</symbol>

	<symbol xmlns="http://www.w3.org/2000/svg" id="ic_soc2" viewBox="0 0 32 32">
		<path d="M21.3205 17.6499C21.2611 17.5507 21.1026 17.4913 20.8649 17.3722C20.6272 17.2532 19.4584 16.6782 19.2405 16.5988C19.0226 16.5195 18.8641 16.4799 18.7056 16.7178C18.5472 16.9557 18.0916 17.4913 17.9529 17.6499C17.8142 17.8085 17.6755 17.8284 17.4379 17.7094C17.2002 17.5904 16.4342 17.3394 15.5261 16.5295C14.8194 15.8991 14.3423 15.1207 14.2037 14.8827C14.065 14.6447 14.1889 14.516 14.3079 14.3975C14.4148 14.291 14.5456 14.1198 14.6645 13.981C14.7833 13.8422 14.823 13.743 14.9022 13.5845C14.9814 13.4257 14.9418 13.287 14.8824 13.168C14.823 13.049 14.3475 11.8788 14.1494 11.4028C13.9565 10.9393 13.7605 11.0021 13.6146 10.9947C13.4761 10.9878 13.3174 10.9863 13.1589 10.9863C13.0005 10.9863 12.7429 11.0458 12.525 11.2838C12.3071 11.5218 11.693 12.097 11.693 13.267C11.693 14.4371 12.5448 15.5676 12.6637 15.7262C12.7825 15.8849 14.34 18.286 16.7247 19.3157C17.2919 19.5607 17.7347 19.707 18.0799 19.8165C18.6494 19.9975 19.1677 19.9719 19.5772 19.9107C20.034 19.8425 20.9837 19.3357 21.1819 18.7804C21.3799 18.225 21.3799 17.749 21.3205 17.6499Z" stroke="none"/>
		<path d="M16.5271 6.6167C18.8734 6.61774 21.0717 7.52955 22.7273 9.18701C24.3828 10.8445 25.2926 13.0441 25.2917 15.3872C25.2898 20.2178 21.3587 24.1499 16.5271 24.1519H16.5241C15.0569 24.1513 13.6149 23.7832 12.3357 23.0854L12.0749 22.9429L11.7868 23.0181L7.99973 24.0112L9.00656 20.3345L9.08859 20.0327L8.93234 19.7622C8.16578 18.4337 7.76274 16.9259 7.7634 15.3804C7.76532 10.6997 11.4555 6.86379 16.0769 6.62842L16.5271 6.6167Z" fill="none" stroke-width="1.5"/>
	</symbol>

	<symbol xmlns="http://www.w3.org/2000/svg" id="ic_soc3" viewBox="0 0 32 32">
		<path fill-rule="evenodd" clip-rule="evenodd" d="M26.1295 10.954C26.2875 10.4572 26.1295 10.0958 25.4294 10.0958H23.1034C22.5162 10.0958 22.2452 10.412 22.0871 10.7507C22.0871 10.7507 20.8902 13.6413 19.2191 15.5157C18.6771 16.0577 18.4287 16.2384 18.1351 16.2384C17.977 16.2384 17.7738 16.0577 17.7738 15.5609V10.9314C17.7738 10.3442 17.5931 10.0732 17.0963 10.0732H13.4379C13.0765 10.0732 12.8507 10.3442 12.8507 10.6152C12.8507 11.1798 13.6863 11.3153 13.7766 12.8961V16.3287C13.7766 17.0739 13.6411 17.2094 13.3475 17.2094C12.5571 17.2094 10.6376 14.2962 9.48585 10.9766C9.26002 10.3217 9.0342 10.0732 8.44704 10.0732H6.09842C5.42093 10.0732 5.30801 10.3894 5.30801 10.7281C5.30801 11.3379 6.09842 14.4092 8.98903 18.4741C10.9086 21.2518 13.6411 22.7423 16.1027 22.7423C17.5931 22.7423 17.7738 22.4035 17.7738 21.8389V19.7387C17.7738 19.0612 17.9093 18.9483 18.3835 18.9483C18.7223 18.9483 19.332 19.129 20.7096 20.4614C22.2904 22.0422 22.5614 22.7648 23.4421 22.7648H25.7681C26.4456 22.7648 26.7618 22.4261 26.5811 21.7712C26.3779 21.1163 25.6101 20.1678 24.6164 19.0387C24.0744 18.4063 23.2614 17.7063 23.013 17.3675C22.6743 16.9159 22.7646 16.7352 23.013 16.3287C22.9904 16.3287 25.8359 12.309 26.1295 10.954Z" stroke="none"/>
	</symbol>

	<symbol xmlns="http://www.w3.org/2000/svg" id="arrow1" viewBox="0 0 14 8">
		<path d="M1 0.999999L7 7L13 1" stroke-width="2" stroke-linecap="round" stroke-linejoin="round"/>
	</symbol>

	<symbol xmlns="http://www.w3.org/2000/svg" id="arrow2" viewBox="0 0 8 14">
		<path d="M0.999999 1L7 7L1 13" stroke-width="2" stroke-linecap="round" stroke-linejoin="round"/>
	</symbol>

	<symbol xmlns="http://www.w3.org/2000/svg" id="arrow3" viewBox="0 0 7 13">
		<path d="M0.5 12.5L6.5 6.5L0.5 0.5" stroke-linecap="round" stroke-linejoin="round"/>
	</symbol>

	<symbol xmlns="http://www.w3.org/2000/svg" id="favorite2" viewBox="0 0 24 24">
		<path d="M17 4.75C18.1541 4.75 19.0995 5.10809 19.8799 5.81934L20.0342 5.96582C20.8431 6.77491 21.25 7.76901 21.25 9C21.25 10.5843 20.6336 12.1017 19.3174 13.5674C17.92 15.1234 16.3586 16.6793 14.6338 18.2354L14.6328 18.2373L13.2109 19.5273L13.1973 19.54L13.1846 19.5527C13.1002 19.637 13.0048 19.6966 12.8916 19.7363C12.7454 19.7874 12.6126 19.8096 12.4902 19.8096C12.3676 19.8095 12.2366 19.7874 12.0957 19.7373C11.9862 19.6981 11.8909 19.6379 11.8047 19.5518L11.793 19.54L11.7793 19.5273L10.3428 18.2217C8.58648 16.6202 7.0218 15.0504 5.64844 13.5127C4.35584 12.0653 3.75 10.5663 3.75 9C3.75 7.84594 4.10809 6.90051 4.81934 6.12012L4.96582 5.96582C5.77491 5.15689 6.76901 4.75 8 4.75C8.68691 4.75 9.37481 4.90707 10.0693 5.23535C10.7244 5.54507 11.3361 6.06029 11.8975 6.81641L12.5 7.62793L13.1025 6.81641C13.6639 6.06029 14.2756 5.54507 14.9307 5.23535C15.6252 4.90707 16.3131 4.75 17 4.75Z" stroke-width="1.5"/>
	</symbol>

	<symbol xmlns="http://www.w3.org/2000/svg" id="play" viewBox="0 0 128 128">
		<foreignObject x="-8.8" y="-8.8" width="145.6" height="145.6"><div xmlns="http://www.w3.org/1999/xhtml" style="backdrop-filter:blur(4.4px);clip-path:url(#bgblur_0_2347_8233_clip_path);height:100%;width:100%"></div></foreignObject>
		<path data-figma-bg-blur-radius="8.8" d="M64 0C99.3462 0 128 28.6538 128 64C128 99.3462 99.3462 128 64 128C28.6538 128 0 99.3462 0 64C0 28.6538 28.6538 0 64 0ZM47.3506 92.8379L97.2988 64L47.3506 35.1621V92.8379Z"/>
		<defs>
			<clipPath id="bgblur_0_2347_8233_clip_path" transform="translate(8.8 8.8)"><path d="M64 0C99.3462 0 128 28.6538 128 64C128 99.3462 99.3462 128 64 128C28.6538 128 0 99.3462 0 64C0 28.6538 28.6538 0 64 0ZM47.3506 92.8379L97.2988 64L47.3506 35.1621V92.8379Z"/>
			</clipPath>
		</defs>
	</symbol>
</svg>